<?xml version="1.0" ?><!DOCTYPE svg  PUBLIC '-//W3C//DTD SVG 1.1//EN'  'http://www.w3.org/Graphics/SVG/1.1/DTD/svg11.dtd'><svg height="621.000" viewBox="-308.000 -311.000 603.000 621.000" width="603.000" xmlns="http://www.w3.org/2000/svg"><polygon fill="#000" fill-rule="evenodd" points="0.0,-0.0 -94.0,118.0 177.0,-64.0 -188.0,246.0 -270.0,186.0 -246.0,54.0 -9.0,-160.0 -157.0,-4.0 -178.0,-266.0 -202.0,54.0 -218.0,-41.0 -202.0,121.0 -96.0,-154.0 282.0,275.0 63.0,-300.0 -297.0,266.0 -97.0,-257.0 -237.0,14.0 -25.0,-92.0 -97.0,145.0 165.0,249.0 -208.0,-296.0 -153.0,230.0 -273.0,-186.0 -185.0,-285.0 60.0,23.0 -5.0,246.0 33.0,46.0 264.0,-227.0 251.0,-65.0 272.0,148.0 196.0,215.0 85.0,-96.0 130.0,12.0 39.0,99.0 -225.0,-146.0 34.0,-279.0 107.0,242.0 -197.0,-164.0 39.0,298.0 104.0,154.0 -297.0,-264.0 -296.0,-296.0 93.0,-207.0 -157.0,242.0 268.0,237.0 -198.0,-173.0 -184.0,73.0 -101.0,63.0 -181.0,-198.0 -121.0,-253.0 12.0,-88.0 -68.0,-268.0 202.0,124.0 222.0,-83.0 -41.0,11.0 -204.0,-187.0 135.0,51.0 -44.0,15.0 -35.0,93.0 -96.0,163.0 -103.0,-170.0 -105.0,63.0 -158.0,162.0 32.0,-100.0 131.0,232.0 260.0,-264.0 -207.0,-278.0 -115.0,-259.0 164.0,15.0 149.0,-2.0 183.0,-216.0 66.0,62.0 106.0,-92.0 101.0,40.0 52.0,78.0 229.0,-110.0 -279.0,-152.0 -278.0,-237.0 161.0,-57.0 196.0,-277.0 156.0,167.0 -190.0,184.0 175.0,201.0 274.0,-182.0 238.0,-17.0 110.0,283.0 -50.0,-259.0 -219.0,263.0 -81.0,-22.0 97.0,-264.0 109.0,-267.0 -96.0,35.0 283.0,155.0 -18.0,295.0 -125.0,158.0 207.0,-234.0 -257.0,-193.0 254.0,-56.0 280.0,90.0 0.0,0.0" stroke-linejoin="round"/><polyline fill="none" points="0.0,-0.0 -94.0,118.0 177.0,-64.0 -188.0,246.0 -270.0,186.0 -246.0,54.0 -9.0,-160.0 -157.0,-4.0 -178.0,-266.0 -202.0,54.0 -218.0,-41.0 -202.0,121.0 -96.0,-154.0 282.0,275.0 63.0,-300.0 -297.0,266.0 -97.0,-257.0 -237.0,14.0 -25.0,-92.0 -97.0,145.0 165.0,249.0 -208.0,-296.0 -153.0,230.0 -273.0,-186.0 -185.0,-285.0 60.0,23.0 -5.0,246.0 33.0,46.0 264.0,-227.0 251.0,-65.0 272.0,148.0 196.0,215.0 85.0,-96.0 130.0,12.0 39.0,99.0 -225.0,-146.0 34.0,-279.0 107.0,242.0 -197.0,-164.0 39.0,298.0 104.0,154.0 -297.0,-264.0 -296.0,-296.0" stroke="#000" stroke-linecap="round" stroke-linejoin="round"/><polyline fill="none" points="-296.0,-296.0 93.0,-207.0 -157.0,242.0 268.0,237.0 -198.0,-173.0 -184.0,73.0 -101.0,63.0 -181.0,-198.0 -121.0,-253.0 12.0,-88.0 -68.0,-268.0 202.0,124.0 222.0,-83.0 -41.0,11.0 -204.0,-187.0 135.0,51.0 -44.0,15.0 -35.0,93.0 -96.0,163.0 -103.0,-170.0 -105.0,63.0 -158.0,162.0 32.0,-100.0 131.0,232.0 260.0,-264.0 -207.0,-278.0 -115.0,-259.0 164.0,15.0 149.0,-2.0 183.0,-216.0 66.0,62.0 106.0,-92.0 101.0,40.0 52.0,78.0 229.0,-110.0 -279.0,-152.0 -278.0,-237.0 161.0,-57.0 196.0,-277.0 156.0,167.0 -190.0,184.0 175.0,201.0 274.0,-182.0" stroke="#000" stroke-linecap="round" stroke-linejoin="round"/><polyline fill="none" points="274.0,-182.0 238.0,-17.0 110.0,283.0 -50.0,-259.0 -219.0,263.0 -81.0,-22.0 97.0,-264.0 109.0,-267.0 -96.0,35.0 283.0,155.0 -18.0,295.0 -125.0,158.0 207.0,-234.0 -257.0,-193.0 254.0,-56.0 280.0,90.0 0.0,0.0" stroke="#000" stroke-linecap="round" stroke-linejoin="round"/><line fill="none" stroke="none" stroke-linecap="round" x1="0.0" x2="0.0" y1="0.0" y2="0.0"/><polygon fill="#000" fill-rule="evenodd" points="0.0,-0.0 -9.0,-5.0 -7.0,-0.0 -9.0,5.0" stroke="#000" stroke-linejoin="round"/></svg>