<?xml version="1.0" ?><!DOCTYPE svg  PUBLIC '-//W3C//DTD SVG 1.1//EN'  'http://www.w3.org/Graphics/SVG/1.1/DTD/svg11.dtd'><svg height="421.000" viewBox="-35.000 -305.000 421.000 421.000" width="421.000" xmlns="http://www.w3.org/2000/svg"><line fill="none" stroke="none" stroke-linecap="round" stroke-width="2.0" x1="0.0" x2="0.0" y1="0.0" y2="0.0"/><polygon fill="none" fill-rule="evenodd" points="0.0,0.0 0.0,0.0 0.0,0.0" stroke-linejoin="round"/><line fill="none" stroke="none" stroke-linecap="round" stroke-width="2.0" x1="0.0" x2="0.0" y1="0.0" y2="0.0"/><line fill="none" stroke="none" stroke-linecap="round" stroke-width="2.0" x1="0.0" x2="0.0" y1="0.0" y2="0.0"/><polyline fill="none" points="0.0,-0.0 350.0,-0.0 159.376337745,-293.534698781 17.0185126682,26.206211394 362.709431877,-28.5458513701 128.513719651,-288.646540287 37.927053865,49.427498914 370.796834568,-58.7284491172 98.7957480584,-278.990585985 62.2107859147,69.0920773942 374.063069381,-89.8045975146 70.9541780561,-264.804597515 89.2717627411,84.7157396495 372.427710772,-121.009098653 45.6745614983,-246.437880994 118.443653285,95.9137792631 365.9310267,-151.573594152 23.579366443,-224.342685938 149.008148784,102.410463336 354.732987086,-180.745484696 5.21264992212,-199.063069381 180.212649922,104.045821944 339.109324831,-207.806461522 -8.97333854793,-171.221499378 211.28879832,100.779587132 319.444746351,-232.090193572 -18.6292928504,-141.503527786 241.471396067,92.6921844398 296.223458831,-252.998734769 -23.5174513442,-110.640909692 270.017247437,79.9827525633 270.017247437,-270.017247437 -23.5174513442,-79.3935851815 296.223458831,62.9642398951 241.471396067,-282.726679313 -18.6292928504,-48.5309670876 319.444746351,42.0556986982 211.28879832,-290.814082005 -8.97333854793,-18.8129954951 339.109324831,17.7719666486 180.212649922,-294.080316817 5.21264992212,9.02857450719 354.732987086,-9.28901017784" stroke="#a020f0" stroke-linecap="round" stroke-linejoin="round"/><polyline fill="none" points="354.732987086,-9.28901017784 149.008148784,-292.444958209 23.579366443,34.3081910649 365.9310267,-38.4609007213 118.443653285,-285.948274137 45.6745614983,56.4033861203 372.427710772,-69.0253962206 89.2717627411,-274.750234523 70.9541780561,74.7701026412 374.063069381,-100.229897359 62.2107859147,-259.126572268 98.7957480584,88.9560911112 370.796834568,-131.306045756 37.927053865,-239.461993787 128.513719651,98.6120454137 362.709431877,-161.488643503 17.0185126682,-216.240706267 159.376337745,103.500203907 350.0,-190.034494873 4.54747350886e-13,-190.034494873 190.623662255,103.500203907 332.981487332,-216.240706267 -12.7094318765,-161.488643503 221.486280349,98.6120454137 312.072946135,-239.461993787 -20.7968345683,-131.306045756 251.204251942,88.9560911112 287.789214085,-259.126572268 -24.0630693806,-100.229897359 279.045821944,74.7701026411 260.728237259,-274.750234523 -22.4277107723,-69.0253962206 304.325438502,56.4033861203 231.556346715,-285.948274137 -15.9310266998,-38.4609007213 326.420633557,34.3081910649 200.991851216,-292.444958209 -4.73298708622,-9.28901017784 344.787350078,9.02857450719 169.787350078,-294.080316817 10.890675169,17.7719666486 358.973338548,-18.8129954951 138.71120168,-290.814082005" stroke="#a020f0" stroke-linecap="round" stroke-linejoin="round"/><polyline fill="none" points="138.71120168,-290.814082005 30.5552536493,42.0556986982 368.62929285,-48.5309670876 108.528603933,-282.726679313 53.7765411693,62.9642398951 373.517451344,-79.3935851815 79.9827525633,-270.017247437 79.9827525633,79.9827525633 373.517451344,-110.640909692 53.7765411693,-252.998734769 108.528603933,92.6921844398 368.62929285,-141.503527786 30.5552536493,-232.090193572 138.71120168,100.779587132 358.973338548,-171.221499378 10.890675169,-207.806461522 169.787350078,104.045821944 344.787350078,-199.063069381 -4.73298708622,-180.745484696 200.991851216,102.410463336 326.420633557,-224.342685938 -15.9310266998,-151.573594152 231.556346715,95.9137792631 304.325438502,-246.437880994 -22.4277107723,-121.009098653 260.728237259,84.7157396495 279.045821944,-264.804597515 -24.0630693806,-89.8045975146 287.789214085,69.0920773942 251.204251942,-278.990585985 -20.7968345683,-58.7284491172 312.072946135,49.427498914 221.486280349,-288.646540287 -12.7094318765,-28.5458513701 332.981487332,26.206211394 190.623662255,-293.534698781 2.21689333557e-12,-0.0 350.0,-2.02060590482e-12 159.376337745,-293.534698781 17.0185126682,26.206211394 362.709431877,-28.5458513701 128.513719651,-288.646540287 37.927053865,49.427498914" stroke="#a020f0" stroke-linecap="round" stroke-linejoin="round"/><polyline fill="none" points="37.927053865,49.427498914 370.796834568,-58.7284491172 98.7957480584,-278.990585985 62.2107859147,69.0920773942 374.063069381,-89.8045975146 70.9541780561,-264.804597515 89.2717627411,84.7157396495 372.427710772,-121.009098653 45.6745614983,-246.437880994 118.443653285,95.9137792631 365.9310267,-151.573594152 23.579366443,-224.342685938 149.008148784,102.410463336 354.732987086,-180.745484696 5.21264992212,-199.063069381 180.212649922,104.045821944 339.109324831,-207.806461522 -8.97333854793,-171.221499378 211.28879832,100.779587132 319.444746351,-232.090193572 -18.6292928504,-141.503527786 241.471396067,92.6921844398 296.223458831,-252.998734769 -23.5174513442,-110.640909692 270.017247437,79.9827525633" stroke="#a020f0" stroke-linecap="round" stroke-linejoin="round"/><polyline fill="none" points="270.017247437,79.9827525633 270.017247437,-170.017247437 60.3496054504,-33.857488683 288.735969861,67.826672086 249.627353601,-179.095413063 63.8411472316,-11.8127614731 305.322603804,52.8919998025 228.06835521,-184.872129271 70.7382574477,9.41436109299 319.36873129,35.5464769099 205.871106355,-187.205154137 80.8711063549,29.3011968089 330.528490044,16.2172077482 183.58217697,-186.037040846 93.9901895841,47.3580657788 338.527089768,-4.61985692569 161.750394471,-181.396552222 109.772471766,63.1403479611 343.167578391,-26.4516394252 140.913329797,-173.397952498 127.829340736,76.2594311903 344.335691682,-48.7405688097 121.584060635,-162.238193745 147.716176452,86.3922800975 342.002666816,-70.937817665 104.238537743,-148.192066259 168.943299018,93.2893903136 336.225950608,-92.4968160558 89.3038654592,-131.605432316 190.988026228,96.7809320948 327.147784982,-112.886709892 77.1477849819,-112.886709892 213.307543736,96.7809320948 314.991704505,-131.605432316 68.0696193558,-92.4968160558 235.352270946,93.2893903136 300.057032221,-148.192066259 62.2929031474,-70.9378176649 256.579393512,86.3922800975 282.711509329,-162.238193745 59.9598782815,-48.7405688097 276.466229228,76.2594311903 263.382240167,-173.397952498" stroke="#0f0" stroke-linecap="round" stroke-linejoin="round"/><polyline fill="none" points="263.382240167,-173.397952498 61.1279915731,-26.4516394252 294.523098197,63.1403479611 242.545175493,-181.396552222 65.7684801963,-4.61985692569 310.30538038,47.3580657788 220.713392993,-186.037040846 73.7670799203,16.2172077482 323.424463609,29.3011968089 198.424463609,-187.205154137 84.9268386741,35.5464769099 333.557312516,9.41436109299 176.227214754,-184.872129271 98.97296616,52.8919998025 340.454422732,-11.8127614731 154.668216363,-179.095413063 115.559600103,67.826672086 343.945964513,-33.857488683 134.278322527,-170.017247437 134.278322527,79.9827525633 343.945964513,-56.1770061905 115.559600103,-157.861166959 154.668216363,89.0609181893 340.454422732,-78.2217334004 98.97296616,-142.926494676 176.227214754,94.8376343978 333.557312516,-99.4488559664 84.9268386741,-125.580971783 198.424463609,97.1706592637 323.424463609,-119.335691682 73.7670799203,-106.251702622 220.713392993,96.0025459721 310.30538038,-137.392560652 65.7684801963,-85.4146379478 242.545175493,91.3620573489 294.523098197,-153.174842835 61.1279915731,-63.5828554483 263.382240167,83.3634576249 276.466229228,-166.293926064 59.9598782815,-41.2939260638 282.711509329,72.2036988711 256.579393512,-176.426774971 62.2929031474,-19.0966772085" stroke="#0f0" stroke-linecap="round" stroke-linejoin="round"/><polyline fill="none" points="62.2929031474,-19.0966772085 300.057032221,58.1575713852 235.352270946,-183.323885187 68.0696193558,2.46232118231 314.991704505,41.5709374424 213.307543736,-186.815426968 77.1477849819,22.8522150181 327.147784982,22.8522150181 190.988026228,-186.815426968 89.3038654592,41.5709374424 336.225950608,2.46232118231 168.943299018,-183.323885187 104.238537743,58.1575713852 342.002666816,-19.0966772085 147.716176452,-176.426774971 121.584060635,72.2036988711 344.335691682,-41.2939260638 127.829340736,-166.293926064 140.913329797,83.3634576249 343.167578391,-63.5828554483 109.772471766,-153.174842835 161.750394471,91.3620573489 338.527089768,-85.4146379478 93.9901895841,-137.392560652 183.58217697,96.0025459721 330.528490044,-106.251702622 80.8711063549,-119.335691682 205.871106355,97.1706592637 319.36873129,-125.580971783 70.7382574477,-99.4488559664 228.06835521,94.8376343978 305.322603804,-142.926494676 63.8411472316,-78.2217334004 249.627353601,89.0609181893 288.735969861,-157.861166959 60.3496054504,-56.1770061905 270.017247437,79.9827525633 270.017247437,-170.017247437 60.3496054504,-33.857488683 288.735969861,67.826672086 249.627353601,-179.095413063 63.8411472316,-11.8127614731 305.322603804,52.8919998025" stroke="#0f0" stroke-linecap="round" stroke-linejoin="round"/><polyline fill="none" points="305.322603804,52.8919998025 228.06835521,-184.872129271 70.7382574477,9.41436109299 319.36873129,35.5464769099 205.871106355,-187.205154137 80.8711063549,29.3011968089 330.528490044,16.2172077482 183.58217697,-186.037040846 93.9901895841,47.3580657788 338.527089768,-4.61985692569 161.750394471,-181.396552222 109.772471766,63.1403479611 343.167578391,-26.4516394252 140.913329797,-173.397952498 127.829340736,76.2594311903 344.335691682,-48.7405688097 121.584060635,-162.238193745 147.716176452,86.3922800975 342.002666816,-70.937817665 104.238537743,-148.192066259 168.943299018,93.2893903136 336.225950608,-92.4968160558 89.3038654592,-131.605432316 190.988026228,96.7809320948 327.147784982,-112.886709892 77.1477849819,-112.886709892 213.307543736,96.7809320948 314.991704505,-131.605432316 68.0696193558,-92.4968160558 235.352270946,93.2893903136 300.057032221,-148.192066259 62.2929031474,-70.9378176649 256.579393512,86.3922800975 282.711509329,-162.238193745 59.9598782815,-48.7405688097 276.466229228,76.2594311903 263.382240167,-173.397952498 61.1279915731,-26.4516394252 294.523098197,63.1403479611 242.545175493,-181.396552222 65.7684801963,-4.61985692569 310.30538038,47.3580657787 220.713392993,-186.037040846" stroke="#0f0" stroke-linecap="round" stroke-linejoin="round"/><polyline fill="none" points="220.713392993,-186.037040846 73.7670799203,16.2172077482 323.424463609,29.3011968089 198.424463609,-187.205154137 84.9268386741,35.5464769099 333.557312516,9.41436109299 176.227214754,-184.872129271 98.97296616,52.8919998025 340.454422732,-11.8127614731 154.668216363,-179.095413063 115.559600103,67.826672086 343.945964513,-33.857488683 134.278322527,-170.017247437 134.278322527,79.9827525633 343.945964513,-56.1770061905 115.559600103,-157.861166959 154.668216363,89.0609181893 340.454422732,-78.2217334004 98.97296616,-142.926494676 176.227214754,94.8376343978 333.557312516,-99.4488559664 84.9268386741,-125.580971783 198.424463609,97.1706592637 323.424463609,-119.335691682 73.7670799203,-106.251702622 220.713392993,96.0025459721 310.30538038,-137.392560652 65.7684801963,-85.4146379478 242.545175493,91.3620573489 294.523098197,-153.174842835 61.1279915731,-63.5828554483 263.382240167,83.3634576249 276.466229228,-166.293926064" stroke="#0f0" stroke-linecap="round" stroke-linejoin="round"/><polyline fill="none" points="276.466229228,-166.293926064 103.261148471,-66.2939260638 281.462453308,24.5041738841 260.556760655,-174.40020519 105.127568363,-48.5361269796 295.338871622,13.2672718954 243.575062602,-179.917893362 109.74894133,-31.2889282669 307.286609449,-0.00203525886233 225.939280834,-182.711126787 117.011473831,-14.9770131983 317.011473831,-14.9770131983 208.083666828,-182.711126787 126.736338213,-0.00203525885931 324.274006332,-31.2889282669 190.44788506,-179.917893362 138.68407604,13.2672718954 328.895379299,-48.5361269796 173.466187007,-174.40020519 152.560494354,24.5041738841 330.761799191,-66.2939260638 157.556718435,-166.293926064 168.023909683,33.4319808871 329.827308558,-84.1250695714 143.111223259,-155.79865948 184.693561422,39.8308606663 326.11491766,-101.590495571 130.485397513,-143.172833735 202.158987422,43.5432515649 319.71603788,-118.26014731 119.990130929,-128.727338559 219.990130929,44.4777421982 310.788230877,-133.723562639 111.883851804,-112.817869986 237.747930014,42.6113223055 299.551328889,-147.599980954 106.366163631,-95.836171933 254.995128726,37.9899493387 286.282021734,-159.54771878 103.572930206,-78.2003901651 271.307043795,30.7274168379 271.307043795,-169.272583162 103.572930206,-60.3447761591" stroke="#ffd700" stroke-linecap="round" stroke-linejoin="round"/><polyline fill="none" points="103.572930206,-60.3447761591 286.282021734,21.002552456 254.995128726,-176.535115663 106.366163631,-42.7089943912 299.551328889,9.05481462927 237.747930014,-181.15648863 111.883851804,-25.7272963384 310.788230877,-4.82160368483 219.990130929,-183.022908523 119.990130929,-9.81782776562 319.71603788,-20.2850190142 202.158987422,-182.088417889 130.485397513,4.62766741025 326.11491766,-36.9546707533 184.693561422,-178.376026991 143.111223259,17.2534931561 329.827308558,-54.4200967529 168.023909683,-171.977147211 157.556718435,27.7487597395 330.761799191,-72.2512402605 152.560494354,-163.049340208 173.466187007,35.8550388652 328.895379299,-90.0090393447 138.68407604,-151.81243822 190.44788506,41.3727270381 324.274006332,-107.256238057 126.736338213,-138.543131065 208.083666828,44.1659604631 317.011473831,-123.568153126 117.011473831,-123.568153126 225.939280834,44.1659604631 307.286609449,-138.543131065 109.74894133,-107.256238057 243.575062602,41.3727270381 295.338871622,-151.81243822 105.127568363,-90.0090393447 260.556760655,35.8550388652 281.462453308,-163.049340208 103.261148471,-72.2512402605 276.466229228,27.7487597395 265.999037979,-171.977147211 104.195639104,-54.4200967529 290.911724403,17.2534931561" stroke="#ffd700" stroke-linecap="round" stroke-linejoin="round"/><polyline fill="none" points="290.911724403,17.2534931561 249.32938624,-178.376026991 107.908030003,-36.9546707533 303.537550149,4.62766741024 231.86396024,-182.088417889 114.306909782,-20.2850190142 314.032816733,-9.81782776562 214.032816733,-183.022908523 123.234716785,-4.82160368483 322.139095858,-25.7272963384 196.275017648,-181.15648863 134.471618773,9.05481462927 327.656784031,-42.7089943912 179.027818936,-176.535115663 147.740925928,21.002552456 330.450017456,-60.3447761591 162.715903867,-169.272583162 162.715903867,30.7274168379 330.450017456,-78.2003901651 147.740925928,-159.54771878 179.027818936,37.9899493387 327.656784031,-95.836171933 134.471618773,-147.599980954 196.275017648,42.6113223055 322.139095858,-112.817869986 123.234716785,-133.723562639 214.032816733,44.4777421982 314.032816733,-128.727338559 114.306909782,-118.26014731 231.86396024,43.5432515649 303.537550149,-143.172833735 107.908030003,-101.590495571 249.32938624,39.8308606663 290.911724403,-155.79865948 104.195639104,-84.1250695714 265.999037979,33.4319808871 276.466229228,-166.293926064 103.261148471,-66.2939260638 281.462453308,24.5041738841 260.556760655,-174.40020519 105.127568363,-48.5361269796 295.338871622,13.2672718954 243.575062602,-179.917893362" stroke="#ffd700" stroke-linecap="round" stroke-linejoin="round"/><polyline fill="none" points="243.575062602,-179.917893362 109.74894133,-31.2889282669 307.286609449,-0.00203525886356 225.939280834,-182.711126787 117.011473831,-14.9770131983 317.011473831,-14.9770131983 208.083666828,-182.711126787 126.736338213,-0.00203525885937 324.274006332,-31.2889282669 190.44788506,-179.917893362 138.68407604,13.2672718954 328.895379299,-48.5361269796 173.466187007,-174.40020519 152.560494354,24.5041738841 330.761799191,-66.2939260638 157.556718435,-166.293926064 168.023909683,33.4319808871 329.827308558,-84.1250695714 143.111223259,-155.79865948 184.693561422,39.8308606663 326.11491766,-101.590495571 130.485397513,-143.172833735 202.158987422,43.5432515649 319.71603788,-118.26014731 119.990130929,-128.727338559 219.990130929,44.4777421982 310.788230877,-133.723562639 111.883851804,-112.817869986 237.747930014,42.6113223055 299.551328889,-147.599980954 106.366163631,-95.836171933 254.995128726,37.9899493387 286.282021734,-159.54771878 103.572930206,-78.2003901651 271.307043795,30.7274168379 271.307043795,-169.272583162 103.572930206,-60.3447761591 286.282021734,21.002552456 254.995128726,-176.535115663 106.366163631,-42.7089943912 299.551328889,9.05481462927 237.747930014,-181.15648863 111.883851804,-25.7272963384" stroke="#ffd700" stroke-linecap="round" stroke-linejoin="round"/><polyline fill="none" points="111.883851804,-25.7272963384 310.788230877,-4.82160368484 219.990130929,-183.022908522 119.990130929,-9.81782776562 319.71603788,-20.2850190142 202.158987422,-182.088417889 130.485397513,4.62766741025 326.11491766,-36.9546707533 184.693561422,-178.376026991 143.111223259,17.2534931561 329.827308558,-54.4200967529 168.023909683,-171.977147211 157.556718435,27.7487597395 330.761799191,-72.2512402605 152.560494354,-163.049340208 173.466187007,35.8550388652 328.895379299,-90.0090393447 138.68407604,-151.81243822 190.44788506,41.3727270381 324.274006332,-107.256238057 126.736338213,-138.543131065 208.083666828,44.1659604631 317.011473831,-123.568153126 117.011473831,-123.568153126 225.939280834,44.1659604631 307.286609449,-138.543131065 109.74894133,-107.256238057 243.575062602,41.3727270381 295.338871622,-151.81243822 105.127568363,-90.0090393447 260.556760655,35.8550388652 281.462453308,-163.049340208 103.261148471,-72.2512402605 276.466229228,27.7487597395 265.999037979,-171.977147211 104.195639104,-54.4200967529 290.911724403,17.2534931561 249.32938624,-178.376026991 107.908030003,-36.9546707533 303.537550149,4.62766741024 231.86396024,-182.088417889 114.306909782,-20.2850190142 314.032816733,-9.81782776562" stroke="#ffd700" stroke-linecap="round" stroke-linejoin="round"/><polyline fill="none" points="314.032816733,-9.81782776562 214.032816733,-183.022908522 123.234716785,-4.82160368483 322.139095858,-25.7272963384 196.275017648,-181.15648863 134.471618773,9.05481462927 327.656784031,-42.7089943912 179.027818936,-176.535115663 147.740925928,21.002552456 330.450017456,-60.3447761591 162.715903867,-169.272583162 162.715903867,30.7274168379 330.450017456,-78.2003901651 147.740925928,-159.54771878 179.027818936,37.9899493387 327.656784031,-95.836171933 134.471618773,-147.599980954 196.275017648,42.6113223055 322.139095858,-112.817869986 123.234716785,-133.723562639 214.032816733,44.4777421982 314.032816733,-128.727338559 114.306909782,-118.26014731 231.86396024,43.5432515649 303.537550149,-143.172833735 107.908030003,-101.590495571 249.32938624,39.8308606663 290.911724403,-155.79865948 104.195639104,-84.1250695714 265.999037979,33.4319808871 276.466229228,-166.293926064 103.261148471,-66.2939260638 281.462453308,24.5041738841 260.556760655,-174.40020519 105.127568363,-48.5361269796 295.338871622,13.2672718954 243.575062602,-179.917893362 109.74894133,-31.2889282669 307.286609449,-0.00203525886472 225.939280834,-182.711126787 117.011473831,-14.9770131983 317.011473831,-14.9770131983 208.083666828,-182.711126787" stroke="#ffd700" stroke-linecap="round" stroke-linejoin="round"/><polyline fill="none" points="208.083666828,-182.711126787 126.736338213,-0.00203525885939 324.274006332,-31.2889282669 190.44788506,-179.917893362 138.68407604,13.2672718954 328.895379299,-48.5361269796 173.466187007,-174.40020519 152.560494354,24.5041738841 330.761799191,-66.2939260638 157.556718435,-166.293926064 168.023909683,33.4319808871 329.827308558,-84.1250695714 143.111223259,-155.79865948 184.693561422,39.8308606663 326.11491766,-101.590495571 130.485397513,-143.172833735 202.158987422,43.5432515649 319.71603788,-118.26014731 119.990130929,-128.727338559 219.990130929,44.4777421982 310.788230877,-133.723562639 111.883851804,-112.817869986 237.747930014,42.6113223055 299.551328889,-147.599980954 106.366163631,-95.836171933 254.995128726,37.9899493387 286.282021734,-159.54771878 103.572930206,-78.2003901651 271.307043795,30.7274168379 271.307043795,-169.272583162 103.572930206,-60.3447761591 286.282021734,21.002552456 254.995128726,-176.535115663 106.366163631,-42.7089943912 299.551328889,9.05481462927 237.747930014,-181.15648863 111.883851804,-25.7272963384 310.788230877,-4.82160368484 219.990130929,-183.022908522 119.990130929,-9.81782776562 319.71603788,-20.2850190142 202.158987422,-182.088417889 130.485397513,4.62766741025" stroke="#ffd700" stroke-linecap="round" stroke-linejoin="round"/><polyline fill="none" points="130.485397513,4.62766741025 326.11491766,-36.9546707533 184.693561422,-178.376026991 143.111223259,17.2534931561 329.827308558,-54.4200967529 168.023909683,-171.977147211 157.556718435,27.7487597395" stroke="#ffd700" stroke-linecap="round" stroke-linejoin="round"/><polygon fill="#000" fill-rule="evenodd" points="157.556718435,27.7487597395 147.2624898,27.9186327206 151.494540608,31.2487597395 152.2624898,36.5788867584" stroke="#ffd700" stroke-linejoin="round"/><line fill="none" stroke="none" stroke-linecap="round" stroke-width="2.0" x1="0.0" x2="0.0" y1="0.0" y2="0.0"/><polyline fill="none" points="0.0,-0.0 350.0,-0.0 159.376337745,-293.534698781 17.0185126682,26.206211394 362.709431877,-28.5458513701 128.513719651,-288.646540287 37.927053865,49.427498914 370.796834568,-58.7284491172 98.7957480584,-278.990585985 62.2107859147,69.0920773942 374.063069381,-89.8045975146 70.9541780561,-264.804597515 89.2717627411,84.7157396495 372.427710772,-121.009098653 45.6745614983,-246.437880994 118.443653285,95.9137792631 365.9310267,-151.573594152 23.579366443,-224.342685938 149.008148784,102.410463336 354.732987086,-180.745484696 5.21264992212,-199.063069381 180.212649922,104.045821944 339.109324831,-207.806461522 -8.97333854793,-171.221499378 211.28879832,100.779587132 319.444746351,-232.090193572 -18.6292928504,-141.503527786 241.471396067,92.6921844398 296.223458831,-252.998734769 -23.5174513442,-110.640909692 270.017247437,79.9827525633 270.017247437,-270.017247437 -23.5174513442,-79.3935851815 296.223458831,62.9642398951 241.471396067,-282.726679313 -18.6292928504,-48.5309670876 319.444746351,42.0556986982 211.28879832,-290.814082005 -8.97333854793,-18.8129954951 339.109324831,17.7719666486 180.212649922,-294.080316817 5.21264992212,9.02857450719 354.732987086,-9.28901017784" stroke="#a020f0" stroke-linecap="round" stroke-linejoin="round"/><polyline fill="none" points="354.732987086,-9.28901017784 149.008148784,-292.444958209 23.579366443,34.3081910649 365.9310267,-38.4609007213 118.443653285,-285.948274137 45.6745614983,56.4033861203 372.427710772,-69.0253962206 89.2717627411,-274.750234523 70.9541780561,74.7701026412 374.063069381,-100.229897359 62.2107859147,-259.126572268 98.7957480584,88.9560911112 370.796834568,-131.306045756 37.927053865,-239.461993787 128.513719651,98.6120454137 362.709431877,-161.488643503 17.0185126682,-216.240706267 159.376337745,103.500203907 350.0,-190.034494873 4.54747350886e-13,-190.034494873 190.623662255,103.500203907 332.981487332,-216.240706267 -12.7094318765,-161.488643503 221.486280349,98.6120454137 312.072946135,-239.461993787 -20.7968345683,-131.306045756 251.204251942,88.9560911112 287.789214085,-259.126572268 -24.0630693806,-100.229897359 279.045821944,74.7701026411 260.728237259,-274.750234523 -22.4277107723,-69.0253962206 304.325438502,56.4033861203 231.556346715,-285.948274137 -15.9310266998,-38.4609007213 326.420633557,34.3081910649 200.991851216,-292.444958209 -4.73298708622,-9.28901017784 344.787350078,9.02857450719 169.787350078,-294.080316817 10.890675169,17.7719666486 358.973338548,-18.8129954951 138.71120168,-290.814082005" stroke="#a020f0" stroke-linecap="round" stroke-linejoin="round"/><polyline fill="none" points="138.71120168,-290.814082005 30.5552536493,42.0556986982 368.62929285,-48.5309670876 108.528603933,-282.726679313 53.7765411693,62.9642398951 373.517451344,-79.3935851815 79.9827525633,-270.017247437 79.9827525633,79.9827525633 373.517451344,-110.640909692 53.7765411693,-252.998734769 108.528603933,92.6921844398 368.62929285,-141.503527786 30.5552536493,-232.090193572 138.71120168,100.779587132 358.973338548,-171.221499378 10.890675169,-207.806461522 169.787350078,104.045821944 344.787350078,-199.063069381 -4.73298708622,-180.745484696 200.991851216,102.410463336 326.420633557,-224.342685938 -15.9310266998,-151.573594152 231.556346715,95.9137792631 304.325438502,-246.437880994 -22.4277107723,-121.009098653 260.728237259,84.7157396495 279.045821944,-264.804597515 -24.0630693806,-89.8045975146 287.789214085,69.0920773942 251.204251942,-278.990585985 -20.7968345683,-58.7284491172 312.072946135,49.427498914 221.486280349,-288.646540287 -12.7094318765,-28.5458513701 332.981487332,26.206211394 190.623662255,-293.534698781 2.21689333557e-12,-0.0 350.0,-2.02060590482e-12 159.376337745,-293.534698781 17.0185126682,26.206211394 362.709431877,-28.5458513701 128.513719651,-288.646540287 37.927053865,49.427498914" stroke="#a020f0" stroke-linecap="round" stroke-linejoin="round"/><polyline fill="none" points="37.927053865,49.427498914 370.796834568,-58.7284491172 98.7957480584,-278.990585985 62.2107859147,69.0920773942 374.063069381,-89.8045975146 70.9541780561,-264.804597515 89.2717627411,84.7157396495 372.427710772,-121.009098653 45.6745614983,-246.437880994 118.443653285,95.9137792631 365.9310267,-151.573594152 23.579366443,-224.342685938 149.008148784,102.410463336 354.732987086,-180.745484696 5.21264992212,-199.063069381 180.212649922,104.045821944 339.109324831,-207.806461522 -8.97333854793,-171.221499378 211.28879832,100.779587132 319.444746351,-232.090193572 -18.6292928504,-141.503527786 241.471396067,92.6921844398 296.223458831,-252.998734769 -23.5174513442,-110.640909692 270.017247437,79.9827525633" stroke="#a020f0" stroke-linecap="round" stroke-linejoin="round"/><polyline fill="none" points="270.017247437,79.9827525633 270.017247437,-170.017247437 60.3496054504,-33.857488683 288.735969861,67.826672086 249.627353601,-179.095413063 63.8411472316,-11.8127614731 305.322603804,52.8919998025 228.06835521,-184.872129271 70.7382574477,9.41436109299 319.36873129,35.5464769099 205.871106355,-187.205154137 80.8711063549,29.3011968089 330.528490044,16.2172077482 183.58217697,-186.037040846 93.9901895841,47.3580657788 338.527089768,-4.61985692569 161.750394471,-181.396552222 109.772471766,63.1403479611 343.167578391,-26.4516394252 140.913329797,-173.397952498 127.829340736,76.2594311903 344.335691682,-48.7405688097 121.584060635,-162.238193745 147.716176452,86.3922800975 342.002666816,-70.937817665 104.238537743,-148.192066259 168.943299018,93.2893903136 336.225950608,-92.4968160558 89.3038654592,-131.605432316 190.988026228,96.7809320948 327.147784982,-112.886709892 77.1477849819,-112.886709892 213.307543736,96.7809320948 314.991704505,-131.605432316 68.0696193558,-92.4968160558 235.352270946,93.2893903136 300.057032221,-148.192066259 62.2929031474,-70.9378176649 256.579393512,86.3922800975 282.711509329,-162.238193745 59.9598782815,-48.7405688097 276.466229228,76.2594311903 263.382240167,-173.397952498" stroke="#0f0" stroke-linecap="round" stroke-linejoin="round"/><polyline fill="none" points="263.382240167,-173.397952498 61.1279915731,-26.4516394252 294.523098197,63.1403479611 242.545175493,-181.396552222 65.7684801963,-4.61985692569 310.30538038,47.3580657788 220.713392993,-186.037040846 73.7670799203,16.2172077482 323.424463609,29.3011968089 198.424463609,-187.205154137 84.9268386741,35.5464769099 333.557312516,9.41436109299 176.227214754,-184.872129271 98.97296616,52.8919998025 340.454422732,-11.8127614731 154.668216363,-179.095413063 115.559600103,67.826672086 343.945964513,-33.857488683 134.278322527,-170.017247437 134.278322527,79.9827525633 343.945964513,-56.1770061905 115.559600103,-157.861166959 154.668216363,89.0609181893 340.454422732,-78.2217334004 98.97296616,-142.926494676 176.227214754,94.8376343978 333.557312516,-99.4488559664 84.9268386741,-125.580971783 198.424463609,97.1706592637 323.424463609,-119.335691682 73.7670799203,-106.251702622 220.713392993,96.0025459721 310.30538038,-137.392560652 65.7684801963,-85.4146379478 242.545175493,91.3620573489 294.523098197,-153.174842835 61.1279915731,-63.5828554483 263.382240167,83.3634576249 276.466229228,-166.293926064 59.9598782815,-41.2939260638 282.711509329,72.2036988711 256.579393512,-176.426774971 62.2929031474,-19.0966772085" stroke="#0f0" stroke-linecap="round" stroke-linejoin="round"/><polyline fill="none" points="62.2929031474,-19.0966772085 300.057032221,58.1575713852 235.352270946,-183.323885187 68.0696193558,2.46232118231 314.991704505,41.5709374424 213.307543736,-186.815426968 77.1477849819,22.8522150181 327.147784982,22.8522150181 190.988026228,-186.815426968 89.3038654592,41.5709374424 336.225950608,2.46232118231 168.943299018,-183.323885187 104.238537743,58.1575713852 342.002666816,-19.0966772085 147.716176452,-176.426774971 121.584060635,72.2036988711 344.335691682,-41.2939260638 127.829340736,-166.293926064 140.913329797,83.3634576249 343.167578391,-63.5828554483 109.772471766,-153.174842835 161.750394471,91.3620573489 338.527089768,-85.4146379478 93.9901895841,-137.392560652 183.58217697,96.0025459721 330.528490044,-106.251702622 80.8711063549,-119.335691682 205.871106355,97.1706592637 319.36873129,-125.580971783 70.7382574477,-99.4488559664 228.06835521,94.8376343978 305.322603804,-142.926494676 63.8411472316,-78.2217334004 249.627353601,89.0609181893 288.735969861,-157.861166959 60.3496054504,-56.1770061905 270.017247437,79.9827525633 270.017247437,-170.017247437 60.3496054504,-33.857488683 288.735969861,67.826672086 249.627353601,-179.095413063 63.8411472316,-11.8127614731 305.322603804,52.8919998025" stroke="#0f0" stroke-linecap="round" stroke-linejoin="round"/><polyline fill="none" points="305.322603804,52.8919998025 228.06835521,-184.872129271 70.7382574477,9.41436109299 319.36873129,35.5464769099 205.871106355,-187.205154137 80.8711063549,29.3011968089 330.528490044,16.2172077482 183.58217697,-186.037040846 93.9901895841,47.3580657788 338.527089768,-4.61985692569 161.750394471,-181.396552222 109.772471766,63.1403479611 343.167578391,-26.4516394252 140.913329797,-173.397952498 127.829340736,76.2594311903 344.335691682,-48.7405688097 121.584060635,-162.238193745 147.716176452,86.3922800975 342.002666816,-70.937817665 104.238537743,-148.192066259 168.943299018,93.2893903136 336.225950608,-92.4968160558 89.3038654592,-131.605432316 190.988026228,96.7809320948 327.147784982,-112.886709892 77.1477849819,-112.886709892 213.307543736,96.7809320948 314.991704505,-131.605432316 68.0696193558,-92.4968160558 235.352270946,93.2893903136 300.057032221,-148.192066259 62.2929031474,-70.9378176649 256.579393512,86.3922800975 282.711509329,-162.238193745 59.9598782815,-48.7405688097 276.466229228,76.2594311903 263.382240167,-173.397952498 61.1279915731,-26.4516394252 294.523098197,63.1403479611 242.545175493,-181.396552222 65.7684801963,-4.61985692569 310.30538038,47.3580657787 220.713392993,-186.037040846" stroke="#0f0" stroke-linecap="round" stroke-linejoin="round"/><polyline fill="none" points="220.713392993,-186.037040846 73.7670799203,16.2172077482 323.424463609,29.3011968089 198.424463609,-187.205154137 84.9268386741,35.5464769099 333.557312516,9.41436109299 176.227214754,-184.872129271 98.97296616,52.8919998025 340.454422732,-11.8127614731 154.668216363,-179.095413063 115.559600103,67.826672086 343.945964513,-33.857488683 134.278322527,-170.017247437 134.278322527,79.9827525633 343.945964513,-56.1770061905 115.559600103,-157.861166959 154.668216363,89.0609181893 340.454422732,-78.2217334004 98.97296616,-142.926494676 176.227214754,94.8376343978 333.557312516,-99.4488559664 84.9268386741,-125.580971783 198.424463609,97.1706592637 323.424463609,-119.335691682 73.7670799203,-106.251702622 220.713392993,96.0025459721 310.30538038,-137.392560652 65.7684801963,-85.4146379478 242.545175493,91.3620573489 294.523098197,-153.174842835 61.1279915731,-63.5828554483 263.382240167,83.3634576249 276.466229228,-166.293926064" stroke="#0f0" stroke-linecap="round" stroke-linejoin="round"/><polyline fill="none" points="276.466229228,-166.293926064 103.261148471,-66.2939260638 281.462453308,24.5041738841 260.556760655,-174.40020519 105.127568363,-48.5361269796 295.338871622,13.2672718954 243.575062602,-179.917893362 109.74894133,-31.2889282669 307.286609449,-0.00203525886233 225.939280834,-182.711126787 117.011473831,-14.9770131983 317.011473831,-14.9770131983 208.083666828,-182.711126787 126.736338213,-0.00203525885931 324.274006332,-31.2889282669 190.44788506,-179.917893362 138.68407604,13.2672718954 328.895379299,-48.5361269796 173.466187007,-174.40020519 152.560494354,24.5041738841 330.761799191,-66.2939260638 157.556718435,-166.293926064 168.023909683,33.4319808871 329.827308558,-84.1250695714 143.111223259,-155.79865948 184.693561422,39.8308606663 326.11491766,-101.590495571 130.485397513,-143.172833735 202.158987422,43.5432515649 319.71603788,-118.26014731 119.990130929,-128.727338559 219.990130929,44.4777421982 310.788230877,-133.723562639 111.883851804,-112.817869986 237.747930014,42.6113223055 299.551328889,-147.599980954 106.366163631,-95.836171933 254.995128726,37.9899493387 286.282021734,-159.54771878 103.572930206,-78.2003901651 271.307043795,30.7274168379 271.307043795,-169.272583162 103.572930206,-60.3447761591" stroke="#ffd700" stroke-linecap="round" stroke-linejoin="round"/><polyline fill="none" points="103.572930206,-60.3447761591 286.282021734,21.002552456 254.995128726,-176.535115663 106.366163631,-42.7089943912 299.551328889,9.05481462927 237.747930014,-181.15648863 111.883851804,-25.7272963384 310.788230877,-4.82160368483 219.990130929,-183.022908523 119.990130929,-9.81782776562 319.71603788,-20.2850190142 202.158987422,-182.088417889 130.485397513,4.62766741025 326.11491766,-36.9546707533 184.693561422,-178.376026991 143.111223259,17.2534931561 329.827308558,-54.4200967529 168.023909683,-171.977147211 157.556718435,27.7487597395 330.761799191,-72.2512402605 152.560494354,-163.049340208 173.466187007,35.8550388652 328.895379299,-90.0090393447 138.68407604,-151.81243822 190.44788506,41.3727270381 324.274006332,-107.256238057 126.736338213,-138.543131065 208.083666828,44.1659604631 317.011473831,-123.568153126 117.011473831,-123.568153126 225.939280834,44.1659604631 307.286609449,-138.543131065 109.74894133,-107.256238057 243.575062602,41.3727270381 295.338871622,-151.81243822 105.127568363,-90.0090393447 260.556760655,35.8550388652 281.462453308,-163.049340208 103.261148471,-72.2512402605 276.466229228,27.7487597395 265.999037979,-171.977147211 104.195639104,-54.4200967529 290.911724403,17.2534931561" stroke="#ffd700" stroke-linecap="round" stroke-linejoin="round"/><polyline fill="none" points="290.911724403,17.2534931561 249.32938624,-178.376026991 107.908030003,-36.9546707533 303.537550149,4.62766741024 231.86396024,-182.088417889 114.306909782,-20.2850190142 314.032816733,-9.81782776562 214.032816733,-183.022908523 123.234716785,-4.82160368483 322.139095858,-25.7272963384 196.275017648,-181.15648863 134.471618773,9.05481462927 327.656784031,-42.7089943912 179.027818936,-176.535115663 147.740925928,21.002552456 330.450017456,-60.3447761591 162.715903867,-169.272583162 162.715903867,30.7274168379 330.450017456,-78.2003901651 147.740925928,-159.54771878 179.027818936,37.9899493387 327.656784031,-95.836171933 134.471618773,-147.599980954 196.275017648,42.6113223055 322.139095858,-112.817869986 123.234716785,-133.723562639 214.032816733,44.4777421982 314.032816733,-128.727338559 114.306909782,-118.26014731 231.86396024,43.5432515649 303.537550149,-143.172833735 107.908030003,-101.590495571 249.32938624,39.8308606663 290.911724403,-155.79865948 104.195639104,-84.1250695714 265.999037979,33.4319808871 276.466229228,-166.293926064 103.261148471,-66.2939260638 281.462453308,24.5041738841 260.556760655,-174.40020519 105.127568363,-48.5361269796 295.338871622,13.2672718954 243.575062602,-179.917893362" stroke="#ffd700" stroke-linecap="round" stroke-linejoin="round"/><polyline fill="none" points="243.575062602,-179.917893362 109.74894133,-31.2889282669 307.286609449,-0.00203525886356 225.939280834,-182.711126787 117.011473831,-14.9770131983 317.011473831,-14.9770131983 208.083666828,-182.711126787 126.736338213,-0.00203525885937 324.274006332,-31.2889282669 190.44788506,-179.917893362 138.68407604,13.2672718954 328.895379299,-48.5361269796 173.466187007,-174.40020519 152.560494354,24.5041738841 330.761799191,-66.2939260638 157.556718435,-166.293926064 168.023909683,33.4319808871 329.827308558,-84.1250695714 143.111223259,-155.79865948 184.693561422,39.8308606663 326.11491766,-101.590495571 130.485397513,-143.172833735 202.158987422,43.5432515649 319.71603788,-118.26014731 119.990130929,-128.727338559 219.990130929,44.4777421982 310.788230877,-133.723562639 111.883851804,-112.817869986 237.747930014,42.6113223055 299.551328889,-147.599980954 106.366163631,-95.836171933 254.995128726,37.9899493387 286.282021734,-159.54771878 103.572930206,-78.2003901651 271.307043795,30.7274168379 271.307043795,-169.272583162 103.572930206,-60.3447761591 286.282021734,21.002552456 254.995128726,-176.535115663 106.366163631,-42.7089943912 299.551328889,9.05481462927 237.747930014,-181.15648863 111.883851804,-25.7272963384" stroke="#ffd700" stroke-linecap="round" stroke-linejoin="round"/><polyline fill="none" points="111.883851804,-25.7272963384 310.788230877,-4.82160368484 219.990130929,-183.022908522 119.990130929,-9.81782776562 319.71603788,-20.2850190142 202.158987422,-182.088417889 130.485397513,4.62766741025 326.11491766,-36.9546707533 184.693561422,-178.376026991 143.111223259,17.2534931561 329.827308558,-54.4200967529 168.023909683,-171.977147211 157.556718435,27.7487597395 330.761799191,-72.2512402605 152.560494354,-163.049340208 173.466187007,35.8550388652 328.895379299,-90.0090393447 138.68407604,-151.81243822 190.44788506,41.3727270381 324.274006332,-107.256238057 126.736338213,-138.543131065 208.083666828,44.1659604631 317.011473831,-123.568153126 117.011473831,-123.568153126 225.939280834,44.1659604631 307.286609449,-138.543131065 109.74894133,-107.256238057 243.575062602,41.3727270381 295.338871622,-151.81243822 105.127568363,-90.0090393447 260.556760655,35.8550388652 281.462453308,-163.049340208 103.261148471,-72.2512402605 276.466229228,27.7487597395 265.999037979,-171.977147211 104.195639104,-54.4200967529 290.911724403,17.2534931561 249.32938624,-178.376026991 107.908030003,-36.9546707533 303.537550149,4.62766741024 231.86396024,-182.088417889 114.306909782,-20.2850190142 314.032816733,-9.81782776562" stroke="#ffd700" stroke-linecap="round" stroke-linejoin="round"/><polyline fill="none" points="314.032816733,-9.81782776562 214.032816733,-183.022908522 123.234716785,-4.82160368483 322.139095858,-25.7272963384 196.275017648,-181.15648863 134.471618773,9.05481462927 327.656784031,-42.7089943912 179.027818936,-176.535115663 147.740925928,21.002552456 330.450017456,-60.3447761591 162.715903867,-169.272583162 162.715903867,30.7274168379 330.450017456,-78.2003901651 147.740925928,-159.54771878 179.027818936,37.9899493387 327.656784031,-95.836171933 134.471618773,-147.599980954 196.275017648,42.6113223055 322.139095858,-112.817869986 123.234716785,-133.723562639 214.032816733,44.4777421982 314.032816733,-128.727338559 114.306909782,-118.26014731 231.86396024,43.5432515649 303.537550149,-143.172833735 107.908030003,-101.590495571 249.32938624,39.8308606663 290.911724403,-155.79865948 104.195639104,-84.1250695714 265.999037979,33.4319808871 276.466229228,-166.293926064 103.261148471,-66.2939260638 281.462453308,24.5041738841 260.556760655,-174.40020519 105.127568363,-48.5361269796 295.338871622,13.2672718954 243.575062602,-179.917893362 109.74894133,-31.2889282669 307.286609449,-0.00203525886472 225.939280834,-182.711126787 117.011473831,-14.9770131983 317.011473831,-14.9770131983 208.083666828,-182.711126787" stroke="#ffd700" stroke-linecap="round" stroke-linejoin="round"/><polyline fill="none" points="208.083666828,-182.711126787 126.736338213,-0.00203525885939 324.274006332,-31.2889282669 190.44788506,-179.917893362 138.68407604,13.2672718954 328.895379299,-48.5361269796 173.466187007,-174.40020519 152.560494354,24.5041738841 330.761799191,-66.2939260638 157.556718435,-166.293926064 168.023909683,33.4319808871 329.827308558,-84.1250695714 143.111223259,-155.79865948 184.693561422,39.8308606663 326.11491766,-101.590495571 130.485397513,-143.172833735 202.158987422,43.5432515649 319.71603788,-118.26014731 119.990130929,-128.727338559 219.990130929,44.4777421982 310.788230877,-133.723562639 111.883851804,-112.817869986 237.747930014,42.6113223055 299.551328889,-147.599980954 106.366163631,-95.836171933 254.995128726,37.9899493387 286.282021734,-159.54771878 103.572930206,-78.2003901651 271.307043795,30.7274168379 271.307043795,-169.272583162 103.572930206,-60.3447761591 286.282021734,21.002552456 254.995128726,-176.535115663 106.366163631,-42.7089943912 299.551328889,9.05481462927 237.747930014,-181.15648863 111.883851804,-25.7272963384 310.788230877,-4.82160368484 219.990130929,-183.022908522 119.990130929,-9.81782776562 319.71603788,-20.2850190142 202.158987422,-182.088417889 130.485397513,4.62766741025" stroke="#ffd700" stroke-linecap="round" stroke-linejoin="round"/><polyline fill="none" points="130.485397513,4.62766741025 326.11491766,-36.9546707533 184.693561422,-178.376026991 143.111223259,17.2534931561 329.827308558,-54.4200967529 168.023909683,-171.977147211 157.556718435,27.7487597395" stroke="#ffd700" stroke-linecap="round" stroke-linejoin="round"/><polygon fill="#000" fill-rule="evenodd" points="157.556718435,27.7487597395 147.2624898,27.9186327206 151.494540608,31.2487597395 152.2624898,36.5788867584" stroke="#ffd700" stroke-linejoin="round"/></svg>