<?xml version="1.0" ?><!DOCTYPE svg  PUBLIC '-//W3C//DTD SVG 1.1//EN'  'http://www.w3.org/Graphics/SVG/1.1/DTD/svg11.dtd'><svg height="350.000" viewBox="-174.000 -172.000 351.000 350.000" width="351.000" xmlns="http://www.w3.org/2000/svg"><line fill="none" stroke="#f00" stroke-linecap="round" stroke-width="5.0" x1="0.0" x2="100.0" y1="-0.0" y2="-0.0"/><line fill="none" stroke="#00f" stroke-linecap="round" stroke-width="5.0" x1="100.0" x2="130.901699437" y1="-0.0" y2="-95.1056516295"/><line fill="none" stroke="#ff0" stroke-linecap="round" stroke-width="5.0" x1="130.901699437" x2="50.0" y1="-95.1056516295" y2="-153.884176859"/><line fill="none" stroke="#800080" stroke-linecap="round" stroke-width="5.0" x1="50.0" x2="-30.9016994375" y1="-153.884176859" y2="-95.1056516295"/><line fill="none" stroke="#008000" stroke-linecap="round" stroke-width="5.0" x1="-30.9016994375" x2="1.42108547152e-14" y1="-95.1056516295" y2="-0.0"/><line fill="none" stroke="#f00" stroke-linecap="round" stroke-width="5.0" x1="1.42108547152e-14" x2="76.6044443119" y1="-0.0" y2="-64.2787609687"/><line fill="none" stroke="#00f" stroke-linecap="round" stroke-width="5.0" x1="76.6044443119" x2="39.1437849703" y1="-64.2787609687" y2="-156.997146425"/><line fill="none" stroke="#ff0" stroke-linecap="round" stroke-width="5.0" x1="39.1437849703" x2="-60.6126200557" y1="-156.997146425" y2="-150.021499051"/><line fill="none" stroke="#800080" stroke-linecap="round" stroke-width="5.0" x1="-60.6126200557" x2="-84.8048096156" y1="-150.021499051" y2="-52.9919264233"/><line fill="none" stroke="#008000" stroke-linecap="round" stroke-width="5.0" x1="-84.8048096156" x2="-1.42108547152e-14" y1="-52.9919264233" y2="7.1054273576e-15"/><line fill="none" stroke="#f00" stroke-linecap="round" stroke-width="5.0" x1="-1.42108547152e-14" x2="17.3648177667" y1="7.1054273576e-15" y2="-98.4807753012"/><line fill="none" stroke="#00f" stroke-linecap="round" stroke-width="5.0" x1="17.3648177667" x2="-70.9299415192" y1="-98.4807753012" y2="-145.42793158"/><line fill="none" stroke="#ff0" stroke-linecap="round" stroke-width="5.0" x1="-70.9299415192" x2="-142.863921553" y1="-145.42793158" y2="-75.9620945339"/><line fill="none" stroke="#800080" stroke-linecap="round" stroke-width="5.0" x1="-142.863921553" x2="-99.0268068742" y1="-75.9620945339" y2="13.917310096"/><line fill="none" stroke="#008000" stroke-linecap="round" stroke-width="5.0" x1="-99.0268068742" x2="-4.26325641456e-14" y1="13.917310096" y2="1.7763568394e-15"/><line fill="none" stroke="#f00" stroke-linecap="round" stroke-width="5.0" x1="-4.26325641456e-14" x2="-50.0" y1="1.7763568394e-15" y2="-86.6025403784"/><line fill="none" stroke="#00f" stroke-linecap="round" stroke-width="5.0" x1="-50.0" x2="-147.814760073" y1="-86.6025403784" y2="-65.8113712967"/><line fill="none" stroke="#ff0" stroke-linecap="round" stroke-width="5.0" x1="-147.814760073" x2="-158.2676064" y1="-65.8113712967" y2="33.6408182402"/><line fill="none" stroke="#800080" stroke-linecap="round" stroke-width="5.0" x1="-158.2676064" x2="-66.9130606359" y1="33.6408182402" y2="74.3144825477"/><line fill="none" stroke="#008000" stroke-linecap="round" stroke-width="5.0" x1="-66.9130606359" x2="-8.52651282912e-14" y1="74.3144825477" y2="1.42108547152e-14"/><line fill="none" stroke="#f00" stroke-linecap="round" stroke-width="5.0" x1="-8.52651282912e-14" x2="-93.9692620786" y1="1.42108547152e-14" y2="-34.2020143326"/><line fill="none" stroke="#00f" stroke-linecap="round" stroke-width="5.0" x1="-93.9692620786" x2="-155.535409611" y1="-34.2020143326" y2="44.5990610281"/><line fill="none" stroke="#ff0" stroke-linecap="round" stroke-width="5.0" x1="-155.535409611" x2="-99.6161192641" y1="44.5990610281" y2="127.502818284"/><line fill="none" stroke="#800080" stroke-linecap="round" stroke-width="5.0" x1="-99.6161192641" x2="-3.48994967025" y1="127.502818284" y2="99.9390827019"/><line fill="none" stroke="#008000" stroke-linecap="round" stroke-width="5.0" x1="-3.48994967025" x2="-1.11910480882e-13" y1="99.9390827019" y2="4.26325641456e-14"/><line fill="none" stroke="#f00" stroke-linecap="round" stroke-width="5.0" x1="-1.11910480882e-13" x2="-93.9692620786" y1="4.26325641456e-14" y2="34.2020143326"/><line fill="none" stroke="#00f" stroke-linecap="round" stroke-width="5.0" x1="-93.9692620786" x2="-90.4793124083" y1="34.2020143326" y2="134.141097034"/><line fill="none" stroke="#ff0" stroke-linecap="round" stroke-width="5.0" x1="-90.4793124083" x2="5.64685718549" y1="134.141097034" y2="161.704832616"/><line fill="none" stroke="#800080" stroke-linecap="round" stroke-width="5.0" x1="5.64685718549" x2="61.5661475326" y1="161.704832616" y2="78.8010753607"/><line fill="none" stroke="#008000" stroke-linecap="round" stroke-width="5.0" x1="61.5661475326" x2="-1.13686837722e-13" y1="78.8010753607" y2="8.52651282912e-14"/><line fill="none" stroke="#f00" stroke-linecap="round" stroke-width="5.0" x1="-1.13686837722e-13" x2="-50.0" y1="8.52651282912e-14" y2="86.6025403784"/><line fill="none" stroke="#00f" stroke-linecap="round" stroke-width="5.0" x1="-50.0" x2="16.9130606359" y1="86.6025403784" y2="160.917022926"/><line fill="none" stroke="#ff0" stroke-linecap="round" stroke-width="5.0" x1="16.9130606359" x2="108.2676064" y1="160.917022926" y2="120.243358619"/><line fill="none" stroke="#800080" stroke-linecap="round" stroke-width="5.0" x1="108.2676064" x2="97.8147600734" y1="120.243358619" y2="20.7911690818"/><line fill="none" stroke="#008000" stroke-linecap="round" stroke-width="5.0" x1="97.8147600734" x2="-9.94759830064e-14" y1="20.7911690818" y2="9.94759830064e-14"/><line fill="none" stroke="#f00" stroke-linecap="round" stroke-width="5.0" x1="-9.94759830064e-14" x2="17.3648177667" y1="9.94759830064e-14" y2="98.4807753012"/><line fill="none" stroke="#00f" stroke-linecap="round" stroke-width="5.0" x1="17.3648177667" x2="116.391624641" y1="98.4807753012" y2="112.398085397"/><line fill="none" stroke="#ff0" stroke-linecap="round" stroke-width="5.0" x1="116.391624641" x2="160.22873932" y1="112.398085397" y2="22.5186807673"/><line fill="none" stroke="#800080" stroke-linecap="round" stroke-width="5.0" x1="160.22873932" x2="88.2947592859" y1="22.5186807673" y2="-46.9471562786"/><line fill="none" stroke="#008000" stroke-linecap="round" stroke-width="5.0" x1="88.2947592859" x2="-8.52651282912e-14" y1="-46.9471562786" y2="1.06581410364e-13"/><line fill="none" stroke="#f00" stroke-linecap="round" stroke-width="5.0" x1="-8.52651282912e-14" x2="76.6044443119" y1="1.06581410364e-13" y2="64.2787609687"/><line fill="none" stroke="#00f" stroke-linecap="round" stroke-width="5.0" x1="76.6044443119" x2="161.409253928" y1="64.2787609687" y2="11.2868345453"/><line fill="none" stroke="#ff0" stroke-linecap="round" stroke-width="5.0" x1="161.409253928" x2="137.217064368" y1="11.2868345453" y2="-85.7427380823"/><line fill="none" stroke="#800080" stroke-linecap="round" stroke-width="5.0" x1="137.217064368" x2="37.4606593416" y1="-85.7427380823" y2="-92.7183854567"/><line fill="none" stroke="#008000" stroke-linecap="round" stroke-width="5.0" x1="37.4606593416" x2="-5.68434188608e-14" y1="-92.7183854567" y2="1.27897692437e-13"/><line fill="none" stroke="#f00" stroke-linecap="round" stroke-width="5.0" x1="-5.68434188608e-14" x2="100.0" y1="1.27897692437e-13" y2="4.33209024209e-13"/><line fill="none" stroke="#00f" stroke-linecap="round" stroke-width="5.0" x1="100.0" x2="130.901699437" y1="4.33209024209e-13" y2="-95.1056516295"/><line fill="none" stroke="#ff0" stroke-linecap="round" stroke-width="5.0" x1="130.901699437" x2="50.0" y1="-95.1056516295" y2="-153.884176859"/><line fill="none" stroke="#800080" stroke-linecap="round" stroke-width="5.0" x1="50.0" x2="-30.9016994375" y1="-153.884176859" y2="-95.1056516295"/><line fill="none" stroke="#008000" stroke-linecap="round" stroke-width="5.0" x1="-30.9016994375" x2="-5.68434188608e-14" y1="-95.1056516295" y2="1.27897692437e-13"/><line fill="none" stroke="none" stroke-linecap="round" stroke-width="5.0" x1="0.0" x2="0.0" y1="0.0" y2="0.0"/><polygon fill="#008000" fill-rule="evenodd" points="-5.68434188608e-14,1.27897692437e-13 -10.1083380365,1.95486627158 -5.36231110183,4.49951326781 -3.68046193964,9.61531070277" stroke="#008000" stroke-linejoin="round"/></svg>