<?xml version="1.0" ?><!DOCTYPE svg  PUBLIC '-//W3C//DTD SVG 1.1//EN'  'http://www.w3.org/Graphics/SVG/1.1/DTD/svg11.dtd'><svg height="315.000" viewBox="-157.000 -157.000 315.000 315.000" width="315.000" xmlns="http://www.w3.org/2000/svg"><polyline fill="none" points="0.0,-0.0 100.0,-0.0 117.320508076,10.0 142.320508076,-33.3012701892" stroke="#f00" stroke-linecap="round" stroke-linejoin="round"/><polyline fill="none" points="0.0,0.0 88.2947592859,-46.9471562786 108.282575826,-46.2491663445 110.027550661,-96.2187076955" stroke="#f00" stroke-linecap="round" stroke-linejoin="round"/><polyline fill="none" points="0.0,0.0 55.9192903471,-82.9037572555 73.8951712731,-91.6711801913 51.9766139336,-136.610882506" stroke="#f00" stroke-linecap="round" stroke-linejoin="round"/><polyline fill="none" points="0.0,0.0 10.4528463268,-99.4521895368 22.2085513726,-115.632529424 -18.2422983461,-145.021792039" stroke="#f00" stroke-linecap="round" stroke-linejoin="round"/><polyline fill="none" points="0.0,0.0 -37.4606593416,-92.7183854567 -34.6771973224,-112.523746832 -84.1906007595,-119.48240188" stroke="#f00" stroke-linecap="round" stroke-linejoin="round"/><polyline fill="none" points="0.0,0.0 -76.6044443119,-64.2787609687 -83.4448471784,-83.0726133844 -130.429478218,-65.9716062181" stroke="#f00" stroke-linecap="round" stroke-linejoin="round"/><polyline fill="none" points="0.0,0.0 -97.8147600734,-20.7911690818 -112.677656583,-34.173781209 -146.134186901,2.98346006492" stroke="#f00" stroke-linecap="round" stroke-linejoin="round"/><polyline fill="none" points="0.0,0.0 -96.1261695938,27.5637355817 -115.532084119,22.7252976697 -127.628178899,71.2400839835" stroke="#f00" stroke-linecap="round" stroke-linejoin="round"/><polyline fill="none" points="0.0,0.0 -71.9339800339,69.4658370459 -91.3398945594,74.3042749579 -79.2437997794,122.819061272" stroke="#f00" stroke-linecap="round" stroke-linejoin="round"/><polyline fill="none" points="0.0,0.0 -30.9016994375,95.1056516295 -45.764595947,108.488263757 -12.3080656291,145.645505031" stroke="#f00" stroke-linecap="round" stroke-linejoin="round"/><polyline fill="none" points="0.0,0.0 17.3648177667,98.4807753012 10.5244149002,117.274627717 57.5090459395,134.375634883" stroke="#f00" stroke-linecap="round" stroke-linejoin="round"/><polyline fill="none" points="0.0,0.0 61.5661475326,78.8010753607 64.3496095518,98.6064367355 113.863012989,91.6477816875" stroke="#f00" stroke-linecap="round" stroke-linejoin="round"/><polyline fill="none" points="0.0,0.0 91.3545457643,40.6736643076 103.11025081,56.8540041951 143.561100529,27.4647415805" stroke="#f00" stroke-linecap="round" stroke-linejoin="round"/><polyline fill="none" points="0.0,0.0 99.756405026,-6.97564737441 117.732285952,1.79177556137 139.650843291,-43.1479267536" stroke="#f00" stroke-linecap="round" stroke-linejoin="round"/><polyline fill="none" points="0.0,0.0 84.8048096156,-52.9919264233 104.792626156,-53.6899163574 103.047651321,-103.659457708" stroke="#f00" stroke-linecap="round" stroke-linejoin="round"/><polyline fill="none" points="0.0,0.0 50.0,-86.6025403784 67.3205080757,-96.6025403784 42.3205080757,-139.903810568" stroke="#f00" stroke-linecap="round" stroke-linejoin="round"/><polyline fill="none" points="0.0,0.0 3.48994967025,-99.9390827019 14.0883349549,-116.900044625 -28.3140698529,-143.396007837" stroke="#f00" stroke-linecap="round" stroke-linejoin="round"/><polyline fill="none" points="0.0,0.0 -43.8371146789,-89.8794046299 -42.441985204,-109.830685635 -92.320187717,-113.318509322" stroke="#f00" stroke-linecap="round" stroke-linejoin="round"/><polyline fill="none" points="0.0,0.0 -80.9016994375,-58.7785252292 -89.036432299,-77.0494343821 -134.713705181,-56.7126022283" stroke="#f00" stroke-linecap="round" stroke-linejoin="round"/><polyline fill="none" points="0.0,0.0 -99.0268068742,-13.917310096 -114.787021946,-26.2305396025 -145.570095713,13.1699980778" stroke="#f00" stroke-linecap="round" stroke-linejoin="round"/><polyline fill="none" points="0.0,0.0 -93.9692620786,34.2020143326 -113.665417139,30.7290507792 -122.347826022,79.9694384298" stroke="#f00" stroke-linecap="round" stroke-linejoin="round"/><polyline fill="none" points="0.0,0.0 -66.9130606359,74.3144825477 -85.9341909618,80.4948224352 -70.483341243,128.04764825" stroke="#f00" stroke-linecap="round" stroke-linejoin="round"/><polyline fill="none" points="0.0,0.0 -24.19218956,97.0295726276 -38.0853569691,111.416368634 -2.11836695221,146.149287157" stroke="#f00" stroke-linecap="round" stroke-linejoin="round"/><polyline fill="none" points="0.0,0.0 24.19218956,97.0295726276 18.6794424436,116.254806546 66.7425272405,130.036674337" stroke="#f00" stroke-linecap="round" stroke-linejoin="round"/><polyline fill="none" points="0.0,0.0 66.9130606359,74.3144825477 71.0712944522,93.8774345624 119.978674489,83.4818500215" stroke="#f00" stroke-linecap="round" stroke-linejoin="round"/><polyline fill="none" points="0.0,0.0 93.9692620786,34.2020143326 106.825014272,49.5229031949 145.127236428,17.3835227106" stroke="#f00" stroke-linecap="round" stroke-linejoin="round"/><polyline fill="none" points="0.0,0.0 99.0268068742,-13.917310096 117.570483965,-6.42517822769 136.300813636,-52.784370956" stroke="#f00" stroke-linecap="round" stroke-linejoin="round"/><polyline fill="none" points="0.0,0.0 80.9016994375,-58.7785252292 100.792137345,-60.8690944946 95.5657141815,-110.595189263" stroke="#f00" stroke-linecap="round" stroke-linejoin="round"/><polyline fill="none" points="0.0,0.0 43.8371146789,-89.8794046299 60.41786613,-101.063262699 32.4582209565,-142.515141327" stroke="#f00" stroke-linecap="round" stroke-linejoin="round"/><polyline fill="none" points="0.0,0.0 -3.48994967025,-99.9390827019 5.89948158547,-117.598034559 -38.2478980575,-141.071612698" stroke="#f00" stroke-linecap="round" stroke-linejoin="round"/><polyline fill="none" points="0.0,0.0 -50.0,-86.6025403784 -50.0,-106.602540378 -100.0,-106.602540378" stroke="#f00" stroke-linecap="round" stroke-linejoin="round"/><polyline fill="none" points="0.0,0.0 -84.8048096156,-52.9919264233 -94.1942408714,-70.6508782805 -138.341620514,-47.1773001412" stroke="#f00" stroke-linecap="round" stroke-linejoin="round"/><polyline fill="none" points="0.0,0.0 -99.756405026,-6.97564737441 -116.337156477,-18.1595054438 -144.296801651,23.2923731839" stroke="#f00" stroke-linecap="round" stroke-linejoin="round"/><polyline fill="none" points="0.0,0.0 -91.3545457643,40.6736643076 -111.244983672,38.5830950422 -116.471406835,88.3091898106" stroke="#f00" stroke-linecap="round" stroke-linejoin="round"/><polyline fill="none" points="0.0,0.0 -61.5661475326,78.8010753607 -80.1098246239,86.293207229 -61.3794949531,132.652399957" stroke="#f00" stroke-linecap="round" stroke-linejoin="round"/><polyline fill="none" points="0.0,0.0 -17.3648177667,98.4807753012 -30.2205699604,113.801664164 8.08165219553,145.941044648" stroke="#f00" stroke-linecap="round" stroke-linejoin="round"/><polyline fill="none" points="0.0,0.0 30.9016994375,95.1056516295 26.7434656211,114.668603644 75.6508456578,125.064188185" stroke="#f00" stroke-linecap="round" stroke-linejoin="round"/><polyline fill="none" points="0.0,0.0 71.9339800339,69.4658370459 77.4467271502,88.6910709647 125.509811947,74.9092031738" stroke="#f00" stroke-linecap="round" stroke-linejoin="round"/><polyline fill="none" points="0.0,0.0 96.1261695938,27.5637355817 110.019337003,41.9505315885 145.98632702,7.21761306552" stroke="#f00" stroke-linecap="round" stroke-linejoin="round"/><polyline fill="none" points="0.0,0.0 97.8147600734,-20.7911690818 116.835890399,-14.6108291943 132.286740118,-62.163655009" stroke="#f00" stroke-linecap="round" stroke-linejoin="round"/><polyline fill="none" points="0.0,0.0 76.6044443119,-64.2787609687 96.3005993721,-67.751724522 87.6181904888,-116.992112173" stroke="#f00" stroke-linecap="round" stroke-linejoin="round"/><polyline fill="none" points="0.0,0.0 37.4606593416,-92.7183854567 53.2208744137,-105.031614963 22.4378006474,-144.432152644" stroke="#f00" stroke-linecap="round" stroke-linejoin="round"/><polyline fill="none" points="0.0,0.0 -10.4528463268,-99.4521895368 -2.31811346525,-117.72309869 -47.9953863474,-138.059930843" stroke="#f00" stroke-linecap="round" stroke-linejoin="round"/><polyline fill="none" points="0.0,0.0 -55.9192903471,-82.9037572555 -57.314419822,-102.855038261 -107.192622335,-99.3672145735" stroke="#f00" stroke-linecap="round" stroke-linejoin="round"/><polyline fill="none" points="0.0,0.0 -88.2947592859,-46.9471562786 -98.8931445706,-63.9081182017 -141.295549378,-37.4121549901" stroke="#f00" stroke-linecap="round" stroke-linejoin="round"/><polyline fill="none" points="0.0,0.0 -100.0,6.51562137577e-13 -117.320508076,-10.0 -142.320508076,33.3012701892" stroke="#f00" stroke-linecap="round" stroke-linejoin="round"/><polyline fill="none" points="0.0,0.0 -88.2947592859,46.9471562786 -108.282575826,46.2491663445 -110.027550661,96.2187076955" stroke="#f00" stroke-linecap="round" stroke-linejoin="round"/><polyline fill="none" points="0.0,0.0 -55.9192903471,82.9037572555 -73.8951712731,91.6711801913 -51.9766139336,136.610882506" stroke="#f00" stroke-linecap="round" stroke-linejoin="round"/><polyline fill="none" points="0.0,0.0 -10.4528463268,99.4521895368 -22.2085513726,115.632529424 18.2422983461,145.021792039" stroke="#f00" stroke-linecap="round" stroke-linejoin="round"/><polyline fill="none" points="0.0,0.0 37.4606593416,92.7183854567 34.6771973224,112.523746832 84.1906007595,119.48240188" stroke="#f00" stroke-linecap="round" stroke-linejoin="round"/><polyline fill="none" points="0.0,0.0 76.6044443119,64.2787609687 83.4448471784,83.0726133844 130.429478218,65.9716062181" stroke="#f00" stroke-linecap="round" stroke-linejoin="round"/><polyline fill="none" points="0.0,0.0 97.8147600734,20.7911690818 112.677656583,34.173781209 146.134186901,-2.98346006492" stroke="#f00" stroke-linecap="round" stroke-linejoin="round"/><polyline fill="none" points="0.0,0.0 96.1261695938,-27.5637355817 115.532084119,-22.7252976697 127.628178899,-71.2400839835" stroke="#f00" stroke-linecap="round" stroke-linejoin="round"/><polyline fill="none" points="0.0,0.0 71.9339800339,-69.4658370459 91.3398945594,-74.3042749579 79.2437997794,-122.819061272" stroke="#f00" stroke-linecap="round" stroke-linejoin="round"/><polyline fill="none" points="0.0,0.0 30.9016994375,-95.1056516295 45.764595947,-108.488263757 12.3080656291,-145.645505031" stroke="#f00" stroke-linecap="round" stroke-linejoin="round"/><polyline fill="none" points="0.0,0.0 -17.3648177667,-98.4807753012 -10.5244149002,-117.274627717 -57.5090459395,-134.375634883" stroke="#f00" stroke-linecap="round" stroke-linejoin="round"/><polyline fill="none" points="0.0,0.0 -61.5661475326,-78.8010753607 -64.3496095518,-98.6064367355 -113.863012989,-91.6477816875" stroke="#f00" stroke-linecap="round" stroke-linejoin="round"/><polyline fill="none" points="0.0,0.0 -91.3545457643,-40.6736643076 -103.11025081,-56.8540041951 -143.561100529,-27.4647415805" stroke="#f00" stroke-linecap="round" stroke-linejoin="round"/><polyline fill="none" points="0.0,0.0 -99.756405026,6.97564737441 -117.732285952,-1.79177556137 -139.650843291,43.1479267536" stroke="#f00" stroke-linecap="round" stroke-linejoin="round"/><polyline fill="none" points="0.0,0.0 -84.8048096156,52.9919264233 -104.792626156,53.6899163574 -103.047651321,103.659457708" stroke="#f00" stroke-linecap="round" stroke-linejoin="round"/><polyline fill="none" points="0.0,0.0 -50.0,86.6025403784 -67.3205080757,96.6025403784 -42.3205080757,139.903810568" stroke="#f00" stroke-linecap="round" stroke-linejoin="round"/><polyline fill="none" points="0.0,0.0 -3.48994967025,99.9390827019 -14.0883349549,116.900044625 28.3140698529,143.396007837" stroke="#f00" stroke-linecap="round" stroke-linejoin="round"/><polyline fill="none" points="0.0,0.0 43.8371146789,89.8794046299 42.441985204,109.830685635 92.320187717,113.318509322" stroke="#f00" stroke-linecap="round" stroke-linejoin="round"/><polyline fill="none" points="0.0,0.0 80.9016994375,58.7785252292 89.036432299,77.0494343821 134.713705181,56.7126022283" stroke="#f00" stroke-linecap="round" stroke-linejoin="round"/><polyline fill="none" points="0.0,0.0 99.0268068742,13.917310096 114.787021946,26.2305396025 145.570095713,-13.1699980778" stroke="#f00" stroke-linecap="round" stroke-linejoin="round"/><polyline fill="none" points="0.0,0.0 93.9692620786,-34.2020143326 113.665417139,-30.7290507792 122.347826022,-79.9694384298" stroke="#f00" stroke-linecap="round" stroke-linejoin="round"/><polyline fill="none" points="0.0,0.0 66.9130606359,-74.3144825477 85.9341909618,-80.4948224352 70.483341243,-128.04764825" stroke="#f00" stroke-linecap="round" stroke-linejoin="round"/><polyline fill="none" points="0.0,0.0 24.19218956,-97.0295726276 38.0853569691,-111.416368634 2.11836695221,-146.149287157" stroke="#f00" stroke-linecap="round" stroke-linejoin="round"/><polyline fill="none" points="0.0,0.0 -24.19218956,-97.0295726276 -18.6794424436,-116.254806546 -66.7425272405,-130.036674337" stroke="#f00" stroke-linecap="round" stroke-linejoin="round"/><polyline fill="none" points="0.0,0.0 -66.9130606359,-74.3144825477 -71.0712944522,-93.8774345624 -119.978674489,-83.4818500215" stroke="#f00" stroke-linecap="round" stroke-linejoin="round"/><polyline fill="none" points="0.0,0.0 -93.9692620786,-34.2020143326 -106.825014272,-49.5229031949 -145.127236428,-17.3835227106" stroke="#f00" stroke-linecap="round" stroke-linejoin="round"/><polyline fill="none" points="0.0,0.0 -99.0268068742,13.917310096 -117.570483965,6.42517822769 -136.300813636,52.784370956" stroke="#f00" stroke-linecap="round" stroke-linejoin="round"/><polyline fill="none" points="0.0,0.0 -80.9016994375,58.7785252292 -100.792137345,60.8690944946 -95.5657141815,110.595189263" stroke="#f00" stroke-linecap="round" stroke-linejoin="round"/><polyline fill="none" points="0.0,0.0 -43.8371146789,89.8794046299 -60.41786613,101.063262699 -32.4582209565,142.515141327" stroke="#f00" stroke-linecap="round" stroke-linejoin="round"/><polyline fill="none" points="0.0,0.0 3.48994967025,99.9390827019 -5.89948158547,117.598034559 38.2478980575,141.071612698" stroke="#f00" stroke-linecap="round" stroke-linejoin="round"/><polyline fill="none" points="0.0,0.0 50.0,86.6025403784 50.0,106.602540378 100.0,106.602540378" stroke="#f00" stroke-linecap="round" stroke-linejoin="round"/><polyline fill="none" points="0.0,0.0 84.8048096156,52.9919264233 94.1942408714,70.6508782805 138.341620514,47.1773001412" stroke="#f00" stroke-linecap="round" stroke-linejoin="round"/><polyline fill="none" points="0.0,0.0 99.756405026,6.97564737441 116.337156477,18.1595054438 144.296801651,-23.2923731839" stroke="#f00" stroke-linecap="round" stroke-linejoin="round"/><polyline fill="none" points="0.0,0.0 91.3545457643,-40.6736643076 111.244983672,-38.5830950422 116.471406835,-88.3091898106" stroke="#f00" stroke-linecap="round" stroke-linejoin="round"/><polyline fill="none" points="0.0,0.0 61.5661475326,-78.8010753607 80.1098246239,-86.293207229 61.3794949531,-132.652399957" stroke="#f00" stroke-linecap="round" stroke-linejoin="round"/><polyline fill="none" points="0.0,0.0 17.3648177667,-98.4807753012 30.2205699604,-113.801664164 -8.08165219553,-145.941044648" stroke="#f00" stroke-linecap="round" stroke-linejoin="round"/><polyline fill="none" points="0.0,0.0 -30.9016994375,-95.1056516295 -26.7434656211,-114.668603644 -75.6508456578,-125.064188185" stroke="#f00" stroke-linecap="round" stroke-linejoin="round"/><polyline fill="none" points="0.0,0.0 -71.9339800339,-69.4658370459 -77.4467271502,-88.6910709647 -125.509811947,-74.9092031738" stroke="#f00" stroke-linecap="round" stroke-linejoin="round"/><polyline fill="none" points="0.0,0.0 -96.1261695938,-27.5637355817 -110.019337003,-41.9505315885 -145.98632702,-7.21761306552" stroke="#f00" stroke-linecap="round" stroke-linejoin="round"/><polyline fill="none" points="0.0,0.0 -97.8147600734,20.7911690818 -116.835890399,14.6108291943 -132.286740118,62.163655009" stroke="#f00" stroke-linecap="round" stroke-linejoin="round"/><polyline fill="none" points="0.0,0.0 -76.6044443119,64.2787609687 -96.3005993721,67.751724522 -87.6181904888,116.992112173" stroke="#f00" stroke-linecap="round" stroke-linejoin="round"/><polyline fill="none" points="0.0,0.0 -37.4606593416,92.7183854567 -53.2208744137,105.031614963 -22.4378006474,144.432152644" stroke="#f00" stroke-linecap="round" stroke-linejoin="round"/><polyline fill="none" points="0.0,0.0 10.4528463268,99.4521895368 2.31811346525,117.72309869 47.9953863474,138.059930843" stroke="#f00" stroke-linecap="round" stroke-linejoin="round"/><polyline fill="none" points="0.0,0.0 55.9192903471,82.9037572555 57.314419822,102.855038261 107.192622335,99.3672145735" stroke="#f00" stroke-linecap="round" stroke-linejoin="round"/><polyline fill="none" points="0.0,0.0 88.2947592859,46.9471562786 98.8931445706,63.9081182017 141.295549378,37.4121549901" stroke="#f00" stroke-linecap="round" stroke-linejoin="round"/><polyline fill="none" points="0.0,0.0 100.0,-1.33365540833e-12 117.320508076,10.0 142.320508076,-33.3012701892" stroke="#f00" stroke-linecap="round" stroke-linejoin="round"/><polyline fill="none" points="0.0,0.0 88.2947592859,-46.9471562786 108.282575826,-46.2491663445 110.027550661,-96.2187076955" stroke="#f00" stroke-linecap="round" stroke-linejoin="round"/><polyline fill="none" points="0.0,0.0 55.9192903471,-82.9037572555 73.8951712731,-91.6711801913 51.9766139336,-136.610882506" stroke="#f00" stroke-linecap="round" stroke-linejoin="round"/><polyline fill="none" points="0.0,0.0 10.4528463268,-99.4521895368 22.2085513726,-115.632529424 -18.2422983461,-145.021792039" stroke="#f00" stroke-linecap="round" stroke-linejoin="round"/><polyline fill="none" points="0.0,0.0 -37.4606593416,-92.7183854567 -34.6771973224,-112.523746832 -84.1906007595,-119.48240188" stroke="#f00" stroke-linecap="round" stroke-linejoin="round"/><polyline fill="none" points="0.0,0.0 -76.6044443119,-64.2787609687 -83.4448471784,-83.0726133844 -130.429478218,-65.9716062181" stroke="#f00" stroke-linecap="round" stroke-linejoin="round"/><polyline fill="none" points="0.0,0.0 -97.8147600734,-20.7911690818 -112.677656583,-34.173781209 -146.134186901,2.98346006492" stroke="#f00" stroke-linecap="round" stroke-linejoin="round"/><polyline fill="none" points="0.0,0.0 -96.1261695938,27.5637355817 -115.532084119,22.7252976697 -127.628178899,71.2400839835" stroke="#f00" stroke-linecap="round" stroke-linejoin="round"/><polyline fill="none" points="0.0,0.0 -71.9339800339,69.4658370459 -91.3398945594,74.3042749579 -79.2437997794,122.819061272" stroke="#f00" stroke-linecap="round" stroke-linejoin="round"/><polyline fill="none" points="0.0,0.0 -30.9016994375,95.1056516295 -45.764595947,108.488263757 -12.3080656291,145.645505031" stroke="#f00" stroke-linecap="round" stroke-linejoin="round"/><polyline fill="none" points="0.0,0.0 17.3648177667,98.4807753012 10.5244149002,117.274627717 57.5090459395,134.375634883" stroke="#f00" stroke-linecap="round" stroke-linejoin="round"/><polyline fill="none" points="0.0,0.0 61.5661475326,78.8010753607 64.3496095518,98.6064367355 113.863012989,91.6477816875" stroke="#f00" stroke-linecap="round" stroke-linejoin="round"/><polyline fill="none" points="0.0,0.0 91.3545457643,40.6736643076 103.11025081,56.8540041951 143.561100529,27.4647415805" stroke="#f00" stroke-linecap="round" stroke-linejoin="round"/><polyline fill="none" points="0.0,0.0 99.756405026,-6.97564737441 117.732285952,1.79177556137 139.650843291,-43.1479267536" stroke="#f00" stroke-linecap="round" stroke-linejoin="round"/><polyline fill="none" points="0.0,0.0 84.8048096156,-52.9919264233 104.792626156,-53.6899163574 103.047651321,-103.659457708" stroke="#f00" stroke-linecap="round" stroke-linejoin="round"/><polyline fill="none" points="0.0,0.0 50.0,-86.6025403784 67.3205080757,-96.6025403784 42.3205080757,-139.903810568" stroke="#f00" stroke-linecap="round" stroke-linejoin="round"/><polyline fill="none" points="0.0,0.0 3.48994967025,-99.9390827019 14.0883349549,-116.900044625 -28.3140698529,-143.396007837" stroke="#f00" stroke-linecap="round" stroke-linejoin="round"/><polyline fill="none" points="0.0,0.0 -43.8371146789,-89.8794046299 -42.441985204,-109.830685635 -92.320187717,-113.318509322" stroke="#f00" stroke-linecap="round" stroke-linejoin="round"/><polyline fill="none" points="0.0,0.0 -80.9016994375,-58.7785252292 -89.036432299,-77.0494343821 -134.713705181,-56.7126022283" stroke="#f00" stroke-linecap="round" stroke-linejoin="round"/><polyline fill="none" points="0.0,0.0 -99.0268068742,-13.917310096 -114.787021946,-26.2305396025 -145.570095713,13.1699980778" stroke="#f00" stroke-linecap="round" stroke-linejoin="round"/><polyline fill="none" points="0.0,0.0 -93.9692620786,34.2020143326 -113.665417139,30.7290507792 -122.347826022,79.9694384298" stroke="#f00" stroke-linecap="round" stroke-linejoin="round"/><polyline fill="none" points="0.0,0.0 -66.9130606359,74.3144825477 -85.9341909618,80.4948224352 -70.483341243,128.04764825" stroke="#f00" stroke-linecap="round" stroke-linejoin="round"/><polyline fill="none" points="0.0,0.0 -24.19218956,97.0295726276 -38.0853569691,111.416368634 -2.11836695221,146.149287157" stroke="#f00" stroke-linecap="round" stroke-linejoin="round"/><polyline fill="none" points="0.0,0.0 24.19218956,97.0295726276 18.6794424436,116.254806546 66.7425272405,130.036674337" stroke="#f00" stroke-linecap="round" stroke-linejoin="round"/><polyline fill="none" points="0.0,0.0 66.9130606359,74.3144825477 71.0712944522,93.8774345624 119.978674489,83.4818500215" stroke="#f00" stroke-linecap="round" stroke-linejoin="round"/><polyline fill="none" points="0.0,0.0 93.9692620786,34.2020143326 106.825014272,49.5229031949 145.127236428,17.3835227106" stroke="#f00" stroke-linecap="round" stroke-linejoin="round"/><polyline fill="none" points="0.0,0.0 99.0268068742,-13.917310096 117.570483965,-6.42517822769 136.300813636,-52.784370956" stroke="#f00" stroke-linecap="round" stroke-linejoin="round"/><polyline fill="none" points="0.0,0.0 80.9016994375,-58.7785252292 100.792137345,-60.8690944946 95.5657141815,-110.595189263" stroke="#f00" stroke-linecap="round" stroke-linejoin="round"/><polyline fill="none" points="0.0,0.0 43.8371146789,-89.8794046299 60.41786613,-101.063262699 32.4582209565,-142.515141327" stroke="#f00" stroke-linecap="round" stroke-linejoin="round"/><polyline fill="none" points="0.0,0.0 -3.48994967025,-99.9390827019 5.89948158547,-117.598034559 -38.2478980575,-141.071612698" stroke="#f00" stroke-linecap="round" stroke-linejoin="round"/><polyline fill="none" points="0.0,0.0 -50.0,-86.6025403784 -50.0,-106.602540378 -100.0,-106.602540378" stroke="#f00" stroke-linecap="round" stroke-linejoin="round"/><polyline fill="none" points="0.0,0.0 -84.8048096156,-52.9919264233 -94.1942408714,-70.6508782805 -138.341620514,-47.1773001412" stroke="#f00" stroke-linecap="round" stroke-linejoin="round"/><polyline fill="none" points="0.0,0.0 -99.756405026,-6.97564737441 -116.337156477,-18.1595054438 -144.296801651,23.2923731839" stroke="#f00" stroke-linecap="round" stroke-linejoin="round"/><polyline fill="none" points="0.0,0.0 -91.3545457643,40.6736643076 -111.244983672,38.5830950422 -116.471406835,88.3091898106" stroke="#f00" stroke-linecap="round" stroke-linejoin="round"/><polyline fill="none" points="0.0,0.0 -61.5661475326,78.8010753607 -80.1098246239,86.293207229 -61.3794949531,132.652399957" stroke="#f00" stroke-linecap="round" stroke-linejoin="round"/><polyline fill="none" points="0.0,0.0 -17.3648177667,98.4807753012 -30.2205699604,113.801664164 8.08165219553,145.941044648" stroke="#f00" stroke-linecap="round" stroke-linejoin="round"/><polyline fill="none" points="0.0,0.0 30.9016994375,95.1056516295 26.7434656211,114.668603644 75.6508456578,125.064188185" stroke="#f00" stroke-linecap="round" stroke-linejoin="round"/><polyline fill="none" points="0.0,0.0 71.9339800339,69.4658370459 77.4467271502,88.6910709647 125.509811947,74.9092031738" stroke="#f00" stroke-linecap="round" stroke-linejoin="round"/><polyline fill="none" points="0.0,0.0 96.1261695938,27.5637355817 110.019337003,41.9505315885 145.98632702,7.21761306552" stroke="#f00" stroke-linecap="round" stroke-linejoin="round"/><polyline fill="none" points="0.0,0.0 97.8147600734,-20.7911690818 116.835890399,-14.6108291943 132.286740118,-62.163655009" stroke="#f00" stroke-linecap="round" stroke-linejoin="round"/><polyline fill="none" points="0.0,0.0 76.6044443119,-64.2787609687 96.3005993721,-67.751724522 87.6181904888,-116.992112173" stroke="#f00" stroke-linecap="round" stroke-linejoin="round"/><polyline fill="none" points="0.0,0.0 37.4606593416,-92.7183854567 53.2208744137,-105.031614963 22.4378006474,-144.432152644" stroke="#f00" stroke-linecap="round" stroke-linejoin="round"/><polyline fill="none" points="0.0,0.0 -10.4528463268,-99.4521895368 -2.31811346525,-117.72309869 -47.9953863474,-138.059930843" stroke="#f00" stroke-linecap="round" stroke-linejoin="round"/><polyline fill="none" points="0.0,0.0 -55.9192903471,-82.9037572555 -57.314419822,-102.855038261 -107.192622335,-99.3672145735" stroke="#f00" stroke-linecap="round" stroke-linejoin="round"/><polyline fill="none" points="0.0,0.0 -88.2947592859,-46.9471562786 -98.8931445706,-63.9081182017 -141.295549378,-37.4121549901" stroke="#f00" stroke-linecap="round" stroke-linejoin="round"/><polyline fill="none" points="0.0,0.0 -100.0,1.96578864298e-12 -117.320508076,-10.0 -142.320508076,33.3012701892" stroke="#f00" stroke-linecap="round" stroke-linejoin="round"/><polyline fill="none" points="0.0,0.0 -88.2947592859,46.9471562786 -108.282575826,46.2491663445 -110.027550661,96.2187076955" stroke="#f00" stroke-linecap="round" stroke-linejoin="round"/><polyline fill="none" points="0.0,0.0 -55.9192903471,82.9037572555 -73.8951712731,91.6711801913 -51.9766139336,136.610882506" stroke="#f00" stroke-linecap="round" stroke-linejoin="round"/><polyline fill="none" points="0.0,0.0 -10.4528463268,99.4521895368 -22.2085513726,115.632529424 18.2422983461,145.021792039" stroke="#f00" stroke-linecap="round" stroke-linejoin="round"/><polyline fill="none" points="0.0,0.0 37.4606593416,92.7183854567 34.6771973224,112.523746832 84.1906007595,119.48240188" stroke="#f00" stroke-linecap="round" stroke-linejoin="round"/><polyline fill="none" points="0.0,0.0 76.6044443119,64.2787609687 83.4448471784,83.0726133844 130.429478218,65.9716062181" stroke="#f00" stroke-linecap="round" stroke-linejoin="round"/><polyline fill="none" points="0.0,0.0 97.8147600734,20.7911690818 112.677656583,34.173781209 146.134186901,-2.98346006492" stroke="#f00" stroke-linecap="round" stroke-linejoin="round"/><polyline fill="none" points="0.0,0.0 96.1261695938,-27.5637355817 115.532084119,-22.7252976697 127.628178899,-71.2400839835" stroke="#f00" stroke-linecap="round" stroke-linejoin="round"/><polyline fill="none" points="0.0,0.0 71.9339800339,-69.4658370459 91.3398945594,-74.3042749579 79.2437997794,-122.819061272" stroke="#f00" stroke-linecap="round" stroke-linejoin="round"/><polyline fill="none" points="0.0,0.0 30.9016994375,-95.1056516295 45.764595947,-108.488263757 12.3080656291,-145.645505031" stroke="#f00" stroke-linecap="round" stroke-linejoin="round"/><polyline fill="none" points="0.0,0.0 -17.3648177667,-98.4807753012 -10.5244149002,-117.274627717 -57.5090459395,-134.375634883" stroke="#f00" stroke-linecap="round" stroke-linejoin="round"/><polyline fill="none" points="0.0,0.0 -61.5661475326,-78.8010753607 -64.3496095518,-98.6064367355 -113.863012989,-91.6477816875" stroke="#f00" stroke-linecap="round" stroke-linejoin="round"/><polyline fill="none" points="0.0,0.0 -91.3545457643,-40.6736643076 -103.11025081,-56.8540041951 -143.561100529,-27.4647415805" stroke="#f00" stroke-linecap="round" stroke-linejoin="round"/><polyline fill="none" points="0.0,0.0 -99.756405026,6.97564737441 -117.732285952,-1.79177556137 -139.650843291,43.1479267536" stroke="#f00" stroke-linecap="round" stroke-linejoin="round"/><polyline fill="none" points="0.0,0.0 -84.8048096156,52.9919264233 -104.792626156,53.6899163574 -103.047651321,103.659457708" stroke="#f00" stroke-linecap="round" stroke-linejoin="round"/><polyline fill="none" points="0.0,0.0 -50.0,86.6025403784 -67.3205080757,96.6025403784 -42.3205080757,139.903810568" stroke="#f00" stroke-linecap="round" stroke-linejoin="round"/><polyline fill="none" points="0.0,0.0 -3.48994967025,99.9390827019 -14.0883349549,116.900044625 28.3140698529,143.396007837" stroke="#f00" stroke-linecap="round" stroke-linejoin="round"/><polyline fill="none" points="0.0,0.0 43.8371146789,89.8794046299 42.441985204,109.830685635 92.320187717,113.318509322" stroke="#f00" stroke-linecap="round" stroke-linejoin="round"/><polyline fill="none" points="0.0,0.0 80.9016994375,58.7785252292 89.036432299,77.0494343821 134.713705181,56.7126022283" stroke="#f00" stroke-linecap="round" stroke-linejoin="round"/><polyline fill="none" points="0.0,0.0 99.0268068742,13.917310096 114.787021946,26.2305396025 145.570095713,-13.1699980778" stroke="#f00" stroke-linecap="round" stroke-linejoin="round"/><polyline fill="none" points="0.0,0.0 93.9692620786,-34.2020143326 113.665417139,-30.7290507792 122.347826022,-79.9694384298" stroke="#f00" stroke-linecap="round" stroke-linejoin="round"/><polyline fill="none" points="0.0,0.0 66.9130606359,-74.3144825477 85.9341909618,-80.4948224352 70.483341243,-128.04764825" stroke="#f00" stroke-linecap="round" stroke-linejoin="round"/><polyline fill="none" points="0.0,0.0 24.19218956,-97.0295726276 38.0853569691,-111.416368634 2.11836695221,-146.149287157" stroke="#f00" stroke-linecap="round" stroke-linejoin="round"/><polyline fill="none" points="0.0,0.0 -24.19218956,-97.0295726276 -18.6794424436,-116.254806546 -66.7425272405,-130.036674337" stroke="#f00" stroke-linecap="round" stroke-linejoin="round"/><polyline fill="none" points="0.0,0.0 -66.9130606359,-74.3144825477 -71.0712944522,-93.8774345624 -119.978674489,-83.4818500215" stroke="#f00" stroke-linecap="round" stroke-linejoin="round"/><polyline fill="none" points="0.0,0.0 -93.9692620786,-34.2020143326 -106.825014272,-49.5229031949 -145.127236428,-17.3835227106" stroke="#f00" stroke-linecap="round" stroke-linejoin="round"/><polyline fill="none" points="0.0,0.0 -99.0268068742,13.917310096 -117.570483965,6.42517822769 -136.300813636,52.784370956" stroke="#f00" stroke-linecap="round" stroke-linejoin="round"/><polyline fill="none" points="0.0,0.0 -80.9016994375,58.7785252293 -100.792137345,60.8690944946 -95.5657141815,110.595189263" stroke="#f00" stroke-linecap="round" stroke-linejoin="round"/><polyline fill="none" points="0.0,0.0 -43.8371146789,89.8794046299 -60.41786613,101.063262699 -32.4582209565,142.515141327" stroke="#f00" stroke-linecap="round" stroke-linejoin="round"/><polyline fill="none" points="0.0,0.0 3.48994967025,99.9390827019 -5.89948158547,117.598034559 38.2478980575,141.071612698" stroke="#f00" stroke-linecap="round" stroke-linejoin="round"/><polyline fill="none" points="0.0,0.0 50.0,86.6025403784 50.0,106.602540378 100.0,106.602540378" stroke="#f00" stroke-linecap="round" stroke-linejoin="round"/><polyline fill="none" points="0.0,0.0 84.8048096156,52.9919264233 94.1942408714,70.6508782805 138.341620514,47.1773001412" stroke="#f00" stroke-linecap="round" stroke-linejoin="round"/><polyline fill="none" points="0.0,0.0 99.756405026,6.97564737441 116.337156477,18.1595054438 144.296801651,-23.2923731839" stroke="#f00" stroke-linecap="round" stroke-linejoin="round"/><polyline fill="none" points="0.0,0.0 91.3545457643,-40.6736643076 111.244983672,-38.5830950422 116.471406835,-88.3091898106" stroke="#f00" stroke-linecap="round" stroke-linejoin="round"/><polyline fill="none" points="0.0,0.0 61.5661475326,-78.8010753607 80.1098246239,-86.293207229 61.3794949531,-132.652399957" stroke="#f00" stroke-linecap="round" stroke-linejoin="round"/><polyline fill="none" points="0.0,0.0 17.3648177667,-98.4807753012 30.2205699604,-113.801664164 -8.08165219553,-145.941044648" stroke="#f00" stroke-linecap="round" stroke-linejoin="round"/><polyline fill="none" points="0.0,0.0 -30.9016994375,-95.1056516295 -26.7434656211,-114.668603644 -75.6508456578,-125.064188185" stroke="#f00" stroke-linecap="round" stroke-linejoin="round"/><polyline fill="none" points="0.0,0.0 -71.9339800339,-69.4658370459 -77.4467271502,-88.6910709647 -125.509811947,-74.9092031738" stroke="#f00" stroke-linecap="round" stroke-linejoin="round"/><polyline fill="none" points="0.0,0.0 -96.1261695938,-27.5637355817 -110.019337003,-41.9505315885 -145.98632702,-7.21761306552" stroke="#f00" stroke-linecap="round" stroke-linejoin="round"/><polyline fill="none" points="0.0,0.0 -97.8147600734,20.7911690818 -116.835890399,14.6108291943 -132.286740118,62.163655009" stroke="#f00" stroke-linecap="round" stroke-linejoin="round"/><polyline fill="none" points="0.0,0.0 -76.6044443119,64.2787609687 -96.3005993721,67.751724522 -87.6181904888,116.992112173" stroke="#f00" stroke-linecap="round" stroke-linejoin="round"/><polyline fill="none" points="0.0,0.0 -37.4606593416,92.7183854567 -53.2208744137,105.031614963 -22.4378006474,144.432152644" stroke="#f00" stroke-linecap="round" stroke-linejoin="round"/><polyline fill="none" points="0.0,0.0 10.4528463268,99.4521895368 2.31811346525,117.72309869 47.9953863474,138.059930843" stroke="#f00" stroke-linecap="round" stroke-linejoin="round"/><polyline fill="none" points="0.0,0.0 55.9192903471,82.9037572555 57.314419822,102.855038261 107.192622335,99.3672145735" stroke="#f00" stroke-linecap="round" stroke-linejoin="round"/><polyline fill="none" points="0.0,0.0 88.2947592859,46.9471562786 98.8931445706,63.9081182017 141.295549378,37.4121549901" stroke="#f00" stroke-linecap="round" stroke-linejoin="round"/><line fill="none" stroke="none" stroke-linecap="round" x1="0.0" x2="0.0" y1="0.0" y2="0.0"/><line fill="none" stroke="none" stroke-linecap="round" stroke-width="2.0" x1="0.0" x2="0.0" y1="0.0" y2="0.0"/><polygon fill="#000" fill-rule="evenodd" points="0.0,-0.0 -9.0,-5.0 -7.0,1.82728832065e-13 -9.0,5.0" stroke="#f00" stroke-linejoin="round"/></svg>