<?xml version="1.0" ?><!DOCTYPE svg  PUBLIC '-//W3C//DTD SVG 1.1//EN'  'http://www.w3.org/Graphics/SVG/1.1/DTD/svg11.dtd'><svg height="129.000" viewBox="-89.000 -116.000 179.000 129.000" width="179.000" xmlns="http://www.w3.org/2000/svg"><line fill="none" stroke="none" stroke-linecap="round" stroke-width="2.0" x1="0.0" x2="0.0" y1="0.0" y2="0.0"/><polygon fill="none" fill-rule="evenodd" points="0.0,0.0 0.0,0.0 0.0,0.0" stroke-linejoin="round"/><line fill="none" stroke="none" stroke-linecap="round" stroke-width="2.0" x1="0.0" x2="0.0" y1="0.0" y2="0.0"/><polyline fill="none" points="0.0,-0.0 -20.0,-2.4492935982947065e-15 -40.0,-4.898587196589413e-15 -58.07007380960792,-5.871322893124008 -71.65484625361782,-17.680385414953136 -77.74710139588792,-33.55125266540556 -74.42051434280377,-49.20161427714645 -62.9298476960191,-58.84342842244453 -48.94903420945507,-58.11072503504332 -40.76786912580718,-48.00782753610271 -43.67093187300319,-36.36427882079075 -54.13255355224988,-32.96509188266633 -61.20362136411536,-40.036159694531804 -57.68704120771189,-48.32070337560377 -49.730866044765705,-47.48447566946255 -48.99916680189213,-40.52282240188464 -54.84538719060354,-39.17311607582145 -56.139482416116145,-44.002745207266784 -52.22689201318092,-44.83439197053782 -52.017622591948545,-41.841699819758354 -53.99299927313882,-42.154568749838816 -53.539008773399274,-43.045575274027186" stroke="#000" stroke-linecap="round" stroke-linejoin="round"/><line fill="none" stroke="none" stroke-linecap="round" x1="0.0" x2="0.0" y1="0.0" y2="0.0"/><polygon fill="#000" fill-rule="evenodd" points="-53.539008773399274,-43.045575274027186 -55.493875044983255,-53.15391331053068 -58.038522041205056,-48.40788637586003 -63.15431947617303,-46.72603721366528" stroke="#000" stroke-linejoin="round"/><polyline fill="none" points="0.0,-0.0 20.0,-0.0 40.0,-0.0 58.07007380960792,-5.871322893124001 71.65484625361782,-17.68038541495313 77.74710139588792,-33.551252665405556 74.42051434280377,-49.20161427714645 62.9298476960191,-58.84342842244454 48.949034209455064,-58.11072503504333 40.767869125807174,-48.00782753610271 43.670931873003184,-36.36427882079075 54.132553552249874,-32.96509188266632 61.20362136411535,-40.03615969453179 57.68704120771189,-48.320703375603756 49.730866044765705,-47.48447566946253 48.99916680189212,-40.52282240188462 54.84538719060353,-39.173116075821426 56.13948241611614,-44.00274520726677 52.226892013180915,-44.83439197053781 52.01762259194854,-41.84169981975833 53.992999273138814,-42.154568749838795 53.53900877339927,-43.045575274027165" stroke="#000" stroke-linecap="round" stroke-linejoin="round"/><line fill="none" stroke="none" stroke-linecap="round" x1="0.0" x2="0.0" y1="0.0" y2="0.0"/><polygon fill="#000" fill-rule="evenodd" points="53.53900877339927,-43.045575274027165 63.154319476173015,-46.72603721366526 58.03852204120505,-48.40788637586 55.49387504498325,-53.15391331053066" stroke="#000" stroke-linejoin="round"/><line fill="none" stroke="none" stroke-linecap="round" x1="0.0" x2="0.0" y1="0.0" y2="0.0"/><polyline fill="none" points="-29.999999999999993,-100.0 -34.99999999999999,-100.0 -39.75528258147576,-98.45491502812527 -43.8003675533505,-95.5159887666629 -46.73929381481286,-91.47090379478817 -48.2843787866876,-86.7156212133124 -48.2843787866876,-81.7156212133124 -46.73929381481286,-76.96033863183663 -43.8003675533505,-72.9152536599619 -39.75528258147576,-69.97632739849954 -35.0,-68.43124242662479 -30.000000000000004,-68.43124242662479 -25.24471741852424,-69.97632739849952 -21.199632446649503,-72.91525365996188 -18.260706185187136,-76.9603386318366 -16.715621213312396,-81.71562121331237 -16.715621213312392,-86.71562121331237 -18.260706185187125,-91.47090379478814 -21.19963244664949,-95.51598876666287 -25.24471741852422,-98.45491502812524 -29.999999999999986,-99.99999999999999" stroke="#000" stroke-linecap="round" stroke-linejoin="round"/><polygon fill="#000" fill-rule="evenodd" points="-29.999999999999986,-99.99999999999999 -20.99999999999999,-94.99999999999999 -22.999999999999986,-99.99999999999999 -20.999999999999982,-104.99999999999999" stroke="#000" stroke-linejoin="round"/><line fill="none" stroke="none" stroke-linecap="round" x1="0.0" x2="0.0" y1="0.0" y2="0.0"/><polyline fill="none" points="30.000000000000007,-100.0 35.00000000000001,-100.0 39.755282581475775,-98.45491502812526 43.80036755335051,-95.51598876666289 46.739293814812875,-91.47090379478814 48.28437878668761,-86.71562121331237 48.28437878668761,-81.71562121331237 46.739293814812875,-76.9603386318366 43.80036755335051,-72.91525365996188 39.755282581475775,-69.9763273984995 35.000000000000014,-68.43124242662476 30.000000000000018,-68.43124242662476 25.244717418524253,-69.97632739849949 21.199632446649517,-72.91525365996185 18.26070618518715,-76.96033863183658 16.71562121331241,-81.71562121331235 16.715621213312406,-86.71562121331235 18.26070618518714,-91.47090379478811 21.199632446649503,-95.51598876666284 25.244717418524235,-98.45491502812521 30.0,-99.99999999999996" stroke="#000" stroke-linecap="round" stroke-linejoin="round"/><polygon fill="#000" fill-rule="evenodd" points="30.0,-99.99999999999996 20.999999999999996,-104.99999999999996 23.0,-99.99999999999996 21.000000000000004,-94.99999999999996" stroke="#000" stroke-linejoin="round"/></svg>