<?xml version="1.0" ?><!DOCTYPE svg  PUBLIC '-//W3C//DTD SVG 1.1//EN'  'http://www.w3.org/Graphics/SVG/1.1/DTD/svg11.dtd'><svg height="409.000" viewBox="-77.000 -174.000 254.000 409.000" width="254.000" xmlns="http://www.w3.org/2000/svg"><line fill="none" stroke="none" stroke-linecap="round" stroke-width="2.0" x1="0.0" x2="0.0" y1="0.0" y2="0.0"/><polygon fill="none" fill-rule="evenodd" points="0.0,0.0 0.0,0.0 0.0,0.0" stroke-linejoin="round"/><line fill="none" stroke="none" stroke-linecap="round" stroke-width="2.0" x1="0.0" x2="0.0" y1="0.0" y2="0.0"/><line fill="none" stroke="#ff0" stroke-linecap="round" stroke-width="10.0" x1="0.0" x2="100.0" y1="-0.0" y2="-0.0"/><line fill="none" stroke="#f00" stroke-linecap="round" stroke-width="10.0" x1="100.0" x2="130.901699437" y1="-0.0" y2="-95.1056516295"/><line fill="none" stroke="#a020f0" stroke-linecap="round" stroke-width="10.0" x1="130.901699437" x2="50.0" y1="-95.1056516295" y2="-153.884176859"/><line fill="none" stroke="#00f" stroke-linecap="round" stroke-width="10.0" x1="50.0" x2="-30.9016994375" y1="-153.884176859" y2="-95.1056516295"/><line fill="none" stroke="#0f0" stroke-linecap="round" stroke-width="10.0" x1="-30.9016994375" x2="1.42108547152e-14" y1="-95.1056516295" y2="-0.0"/><line fill="none" stroke="none" stroke-linecap="round" stroke-width="10.0" x1="0.0" x2="0.0" y1="0.0" y2="0.0"/><polygon fill="#0f0" fill-rule="evenodd" points="1.42108547152e-14,-0.0 -9.0,-5.0 -7.0,-1.55431223448e-15 -9.0,5.0" stroke="#0f0" stroke-linejoin="round"/><polyline fill="none" points="0.0,-0.0 100.0,-0.0 162.932039105,77.7145961457 142.140870023,175.529356219 53.0402176044,220.928406193 -38.3143281599,180.254741885 -64.1962326701,83.6621592565 -5.41770744089,2.76045981905" stroke="#a020f0" stroke-linecap="round" stroke-linejoin="round" stroke-width="3.0"/><line fill="none" stroke="none" stroke-linecap="round" stroke-width="3.0" x1="0.0" x2="0.0" y1="0.0" y2="0.0"/><polygon fill="#a020f0" fill-rule="evenodd" points="-5.41770744089,2.76045981905 -14.6670530349,-1.76166424854 -12.4081141842,3.12681151275 -14.1436934725,8.22463109901" stroke="#a020f0" stroke-linejoin="round"/><line fill="none" stroke="#ff0" stroke-linecap="round" stroke-width="10.0" x1="0.0" x2="100.0" y1="-0.0" y2="-0.0"/><line fill="none" stroke="#f00" stroke-linecap="round" stroke-width="10.0" x1="100.0" x2="130.901699437" y1="-0.0" y2="-95.1056516295"/><line fill="none" stroke="#a020f0" stroke-linecap="round" stroke-width="10.0" x1="130.901699437" x2="50.0" y1="-95.1056516295" y2="-153.884176859"/><line fill="none" stroke="#00f" stroke-linecap="round" stroke-width="10.0" x1="50.0" x2="-30.9016994375" y1="-153.884176859" y2="-95.1056516295"/><line fill="none" stroke="#0f0" stroke-linecap="round" stroke-width="10.0" x1="-30.9016994375" x2="1.42108547152e-14" y1="-95.1056516295" y2="-0.0"/><line fill="none" stroke="none" stroke-linecap="round" stroke-width="10.0" x1="0.0" x2="0.0" y1="0.0" y2="0.0"/><polygon fill="#0f0" fill-rule="evenodd" points="1.42108547152e-14,-0.0 -9.0,-5.0 -7.0,-1.55431223448e-15 -9.0,5.0" stroke="#0f0" stroke-linejoin="round"/><polyline fill="none" points="0.0,-0.0 100.0,-0.0 162.932039105,77.7145961457 142.140870023,175.529356219 53.0402176044,220.928406193 -38.3143281599,180.254741885 -64.1962326701,83.6621592565 -5.41770744089,2.76045981905" stroke="#a020f0" stroke-linecap="round" stroke-linejoin="round" stroke-width="3.0"/><line fill="none" stroke="none" stroke-linecap="round" stroke-width="3.0" x1="0.0" x2="0.0" y1="0.0" y2="0.0"/><polygon fill="#a020f0" fill-rule="evenodd" points="-5.41770744089,2.76045981905 -14.6670530349,-1.76166424854 -12.4081141842,3.12681151275 -14.1436934725,8.22463109901" stroke="#a020f0" stroke-linejoin="round"/></svg>