<?xml version="1.0" ?><!DOCTYPE svg  PUBLIC '-//W3C//DTD SVG 1.1//EN'  'http://www.w3.org/Graphics/SVG/1.1/DTD/svg11.dtd'><svg height="302.000" viewBox="-86.000 -115.000 173.000 302.000" width="173.000" xmlns="http://www.w3.org/2000/svg"><polyline fill="none" points="0.0,-0.0 15.4508497187,-2.44717418524 29.3892626146,-9.54915028125 40.4508497187,-20.6107373854 47.5528258148,-34.5491502813 50.0,-50.0 47.5528258148,-65.4508497187 40.4508497187,-79.3892626146 29.3892626146,-90.4508497187 15.4508497187,-97.5528258148 3.73034936274e-14,-100.0 -15.4508497187,-97.5528258148 -29.3892626146,-90.4508497187 -40.4508497187,-79.3892626146 -47.5528258148,-65.4508497187 -50.0,-50.0 -47.5528258148,-34.5491502813 -40.4508497187,-20.6107373854 -29.3892626146,-9.54915028125 -15.4508497187,-2.44717418524 -3.37507799486e-14,-6.08402217495e-14 -8.03631396226e-14,100.0 -70.7106781187,170.710678119 -9.94759830064e-14,100.0 70.7106781187,170.710678119 -1.13686837722e-13,100.0 -1.13686837722e-13,-7.1054273576e-14 -70.7106781187,70.7106781187 -1.27897692437e-13,-8.52651282912e-14 70.7106781187,70.7106781187" stroke="#000" stroke-linecap="round" stroke-linejoin="round" stroke-width="5.0"/><line fill="none" stroke="none" stroke-linecap="round" stroke-width="5.0" x1="0.0" x2="0.0" y1="0.0" y2="0.0"/><polygon fill="#000" fill-rule="evenodd" points="70.7106781187,70.7106781187 67.8822509939,60.811183182 65.7609306503,65.7609306503 60.811183182,67.8822509939" stroke="#000" stroke-linejoin="round"/></svg>