<?xml version="1.0" ?><!DOCTYPE svg  PUBLIC '-//W3C//DTD SVG 1.1//EN'  'http://www.w3.org/Graphics/SVG/1.1/DTD/svg11.dtd'><svg height="182.000" viewBox="-40.000 -29.000 181.000 182.000" width="181.000" xmlns="http://www.w3.org/2000/svg"><line fill="none" stroke="none" stroke-linecap="round" stroke-width="2.0" x1="0.0" x2="0.0" y1="0.0" y2="0.0"/><polygon fill="none" fill-rule="evenodd" points="0.0,0.0 0.0,0.0 0.0,0.0" stroke-linejoin="round"/><line fill="none" stroke="none" stroke-linecap="round" stroke-width="2.0" x1="0.0" x2="0.0" y1="0.0" y2="0.0"/><polyline fill="none" points="0.0,-0.0 100.0,-0.0 120.345601305,97.9084087682 28.6244711547,137.748517753 -29.0435610568,56.0515284518 39.2117532651,-17.032067976 124.65369372,34.9263270275 91.1657325026,129.152419239 -7.90286210099,115.53575433 -14.7271034375,15.7688774107 81.5646252973,-11.210799705 127.57112907,77.5777221353 50.0,140.686516568 -27.5711290704,77.5777221353 18.4353747027,-11.210799705 114.727103437,15.7688774107 107.902862101,115.53575433 8.83426749735,129.152419239 -24.6536937197,34.9263270275 60.7882467349,-17.032067976 129.043561057,56.0515284518 71.3755288453,137.748517753 -20.3456013053,97.9084087682 4.97379915032e-14,-8.52651282912e-14 100.0,5.07371922254e-14 120.345601305,97.9084087682 28.6244711547,137.748517753 -29.0435610568,56.0515284518 39.2117532651,-17.032067976 124.65369372,34.9263270275 91.1657325026,129.152419239 -7.90286210099,115.53575433 -14.7271034375,15.7688774107 81.5646252973,-11.210799705 127.57112907,77.5777221353 50.0,140.686516568 -27.5711290704,77.5777221353 18.4353747027,-11.210799705 114.727103437,15.7688774107 107.902862101,115.53575433 8.83426749735,129.152419239 -24.6536937197,34.9263270275 60.7882467349,-17.032067976" stroke="#000" stroke-linecap="round" stroke-linejoin="round"/><polyline fill="none" points="60.7882467349,-17.032067976 129.043561057,56.0515284518 71.3755288453,137.748517753 -20.3456013053,97.9084087682 9.94759830064e-14,-1.70530256582e-13 100.0,6.26165785889e-14 120.345601305,97.9084087682 28.6244711547,137.748517753 -29.0435610568,56.0515284518 39.2117532651,-17.032067976 124.65369372,34.9263270275 91.1657325026,129.152419239 -7.90286210099,115.53575433 -14.7271034375,15.7688774107 81.5646252973,-11.210799705 127.57112907,77.5777221353 50.0,140.686516568 -27.5711290704,77.5777221353 18.4353747027,-11.210799705" stroke="#000" stroke-linecap="round" stroke-linejoin="round"/><line fill="none" stroke="none" stroke-linecap="round" x1="0.0" x2="0.0" y1="0.0" y2="0.0"/><polygon fill="#000" fill-rule="evenodd" points="18.4353747027,-11.210799705 11.1181029723,-18.4535570821 11.6949536912,-13.0993771031 8.42013526076,-8.82438420863" stroke="#000" stroke-linejoin="round"/></svg>